<?xml version="1.0" standalone="no"?>
<!DOCTYPE svg PUBLIC "-//W3C//DTD SVG 1.1//EN" "http://www.w3.org/Graphics/SVG/1.1/DTD/svg11.dtd" >
<svg xmlns="http://www.w3.org/2000/svg">
    <metadata>
        Created by FontForge 20120731 at Wed Nov 30 10:51:16 2016 By admin
    </metadata>
    <defs>
        <font id="iconfont" horiz-adv-x="1024">
            <font-face
                font-family="iconfont"
                font-weight="500"
                font-stretch="normal"
                units-per-em="1024"
                panose-1="2 0 6 3 0 0 0 0 0 0"
                ascent="896"
                descent="-128"
                x-height="792"
                bbox="0 -124 1024 894"
                underline-thickness="0"
                underline-position="0"
                unicode-range="U+0078-E826"/>
            <missing-glyph/>
            <glyph glyph-name=".notdef"/>
            <glyph glyph-name=".notdef"/>
            <glyph glyph-name=".null" horiz-adv-x="0"/>
            <glyph glyph-name="nonmarkingreturn" horiz-adv-x="341"/>
            <glyph
                glyph-name="x"
                unicode="x"
                horiz-adv-x="1001"
                d="M281 543q-27 -1 -53 -1h-83q-18 0 -36.5 -6t-32.5 -18.5t-23 -32t-9 -45.5v-76h912v41q0 16 -0.5 30t-0.5 18q0 13 -5 29t-17 29.5t-31.5 22.5t-49.5 9h-133v-97h-438v97zM955 310v-52q0 -23 0.5 -52t0.5 -58t-10.5 -47.5t-26 -30t-33 -16t-31.5 -4.5q-14 -1 -29.5 -0.5
t-29.5 0.5h-32l-45 128h-439l-44 -128h-29h-34q-20 0 -45 1q-25 0 -41 9.5t-25.5 23t-13.5 29.5t-4 30v167h911zM163 247q-12 0 -21 -8.5t-9 -21.5t9 -21.5t21 -8.5q13 0 22 8.5t9 21.5t-9 21.5t-22 8.5zM316 123q-8 -26 -14 -48q-5 -19 -10.5 -37t-7.5 -25t-3 -15t1 -14.5
t9.5 -10.5t21.5 -4h37h67h81h80h64h36q23 0 34 12t2 38q-5 13 -9.5 30.5t-9.5 34.5q-5 19 -11 39h-368zM336 498v228q0 11 2.5 23t10 21.5t20.5 15.5t34 6h188q31 0 51.5 -14.5t20.5 -52.5v-227h-327z"/>
            <glyph
                glyph-name="iconsz1"
                unicode="&#xe63c;"
                d="M493 823l-382 -150v-413l461 -226l338 226v411v2zM154 276q3 331 3 339q0 3 3 6.5t7 4.5l3 1l383 -164v-382zM577 499l-373 144l145 58l353 -136zM794 498l-61 -40q-16 -10 -19 8q-1 9 3.5 16.5t8.5 10.5l5 4l62 37q12 7 15 -9q1 -8 -2.5 -14.5t-7.5 -9.5zM735 583
l-345 133l105 42l340 -123z"/>
            <glyph
                glyph-name="level"
                unicode="&#xe65f;"
                d="M922 227v0q-3 0 -8.5 7t-13 18t-13.5 16q-1 3 -9.5 17.5t-12 19.5t-12 16t-15.5 15.5t-17.5 9t-21.5 4.5v0q-17 0 -30.5 -6.5t-25 -20.5t-17.5 -24.5t-16 -30.5q0 -9 -7 -22t-14 -19q-8 26 -27 157q-1 0 0 2q-5 32 -7.5 47t-7.5 40.5t-8.5 38t-9 30.5t-11.5 26.5
t-13.5 17.5t-17 12.5t-20.5 3.5v0q-37 0 -53.5 -48.5t-35.5 -166.5v-3q-18 -122 -34 -164q-8 8 -16.5 23.5t-11.5 17.5q-13 40 -31 64.5t-50 24.5v0q-18 0 -31.5 -6.5t-24.5 -20.5t-17 -24.5t-16 -30.5q-5 -15 -13.5 -28t-14.5 -13q-13 0 -34 41q-6 17 -11.5 28t-15.5 25
t-24 21.5t-31 7.5v0q-15 0 -24.5 -9.5t-9.5 -25t9.5 -24.5t24.5 -9v0q3 0 8.5 -7t13 -18t13.5 -16q1 -3 9.5 -17.5t12 -19.5t12 -16.5t15.5 -16t17.5 -8.5t21.5 -4v0q17 0 30.5 6t25 20t17.5 24.5t16 31.5q6 16 15 28.5t19 12.5q0 3 6 -6q15 -22 21 -29q2 -2 10.5 -16.5
t12 -20t12 -16.5t15.5 -15.5t17.5 -8.5t21.5 -4v0q41 0 63 77q9 36 26 141q3 16 10 67t10 70q7 -19 11.5 -42t10 -60t6.5 -42q23 -144 41 -182q18 -36 47 -36v0q18 0 31.5 6t24.5 20t17 24.5t16 31.5q6 16 15.5 28.5t18.5 12.5q6 0 11.5 -7t11.5 -18t12 -16q1 -3 9.5 -17.5
t12 -19.5t12 -16.5t15.5 -16t17.5 -8.5t21.5 -4v0q11 0 19.5 9.5t8.5 24.5q-12 34 -41 34z"/>
            <glyph
                glyph-name="socialfill"
                unicode="&#xe661;"
                d="M683 563q53 -36 85.5 -92.5t38.5 -125.5q23 0 70 -15q-6 93 -50.5 170.5t-120.5 124.5q-2 -5 -8 -27t-15 -35zM636 50q-77 -31 -124 -31q-72 0 -124 31q-16 -23 -47 -54q82 -47 171 -47q101 0 171 47q-31 31 -47 54zM217 345q6 69 38.5 125.5t85.5 92.5q-3 10 -11 34
l-12 36q-75 -46 -120 -127.5t-51 -175.5q47 15 70 15zM225 306q-64 0 -110 -45.5t-46 -109.5t46 -109.5t110 -45.5t109.5 45.5t45.5 109.5t-45.5 109.5t-109.5 45.5v0zM512 811q-64 0 -109.5 -45.5t-45.5 -109.5t45.5 -109.5t109.5 -45.5t109.5 45.5t45.5 109.5t-45.5 109.5
t-109.5 45.5v0zM799 306q-64 0 -109.5 -45.5t-45.5 -109.5t45.5 -109.5t109.5 -45.5t110 45.5t46 109.5t-46 109.5t-110 45.5v0zM225 306q-64 0 -110 -45.5t-46 -109.5t46 -109.5t110 -45.5t109.5 45.5t45.5 109.5t-45.5 109.5t-109.5 45.5v0z"/>
            <glyph
                glyph-name="biaochi"
                unicode="&#xe663;"
                d="M855 812h-268q-2 1 -4 1t-3 -1h-412q-35 0 -60 -25t-25 -60v-687q0 -35 25 -60.5t60 -25.5h162q36 0 61 25.5t25 60.5v238q0 10 -6.5 16.5t-16 6.5t-16 -6.5t-6.5 -16.5v0v0v0v-233q0 -19 -13 -32t-32 -13h-153q-19 0 -32 13t-13 32v92h159q10 0 17 7t7 17t-7 17t-17 7
h-159v119h111q10 0 17 7t7 17t-7 17t-17 7h-111v119h159q10 0 17 7t7 16.5t-7 16.5t-17 7h-159v204q0 19 13 32t32 13h196v-3v-117q0 -11 7 -18t16.5 -7t16.5 7t7 18v117v3h143v-97q0 -10 7 -17t17 -7t17 7t7 17v97h119v-3v-117q0 -11 7 -18t17 -7t17 7t7 18v117v3h76
q19 0 32 -13t13 -32v-180h-435q-10 0 -17 -7t-7 -16.5t7 -16.5t17 -7h447h6h5q9 0 15.5 6.5t6.5 15.5v36v174q0 35 -25 60t-60 25z"/>
            <glyph
                glyph-name="tansuob"
                unicode="&#xe66a;"
                d="M647 115q-17 40 -108 135q-12 12 -13.5 26t3.5 42l1 4q2 16 7.5 24t27.5 16.5t65 15.5q31 5 45 -3.5t29 -32.5l6 -8q10 -15 19.5 -21.5t25.5 -14.5q17 -7 31 -15q21 -12 26 -28t5 -53v-5q0 -77 -36 -120q-60 -51 -133 -76q26 48 -1 114zM512 790q94 0 178 -40
q-69 -43 -90 -71q-6 -8 -17 -25q-14 -21 -22 -29t-19 -10q-8 0 -29 1q-17 0 -32.5 0.5t-30.5 -7t-21 -24.5q-8 -14 -4.5 -53t21.5 -60q7 -8 2 -25t-14 -24q-5 3 -20 21q-34 39 -58 45q-9 3 -28 7q-56 11 -63 26q-5 11 -5 41q0 42 -10 64q-11 25 -39 34q57 61 135 95t166 34z
M64 384q0 -90 35.5 -171.5t95.5 -141t143 -94.5t174 -35t174 35t143 94.5t95.5 141t35.5 171.5t-35.5 172t-95.5 141t-143 94t-174 35t-174 -35t-143 -94t-95.5 -141t-35.5 -172z"/>
            <glyph
                glyph-name="stats1stats2"
                unicode="&#xe673;"
                d="M908 80h-712v712q0 11 -8 18.5t-19 7.5t-18.5 -7.5t-7.5 -18.5v-79h-27q-10 0 -18 -8t-8 -19t8 -18.5t18 -7.5h27v-158h-27q-10 0 -18 -8t-8 -19t8 -18.5t18 -7.5h27v-158h-27q-10 0 -18 -8t-8 -19t8 -18.5t18 -7.5h27v-158h-27q-10 0 -18 -8t-8 -18.5t8 -18.5t18 -8h27
v-26q0 -11 7.5 -19t18.5 -8t19 8t8 19v26h158v-26q0 -11 7.5 -19t18.5 -8t19 8t8 19v26h158v-26q0 -11 7.5 -19t18.5 -8t18.5 8t7.5 19v26h159v-26q0 -11 7.5 -19t18.5 -8t18.5 8t7.5 19v26h80q10 0 18 8t8 18.5t-8 18.5t-18 8v0zM855 660q-33 0 -56 -23t-23 -56
q0 -28 18 -50l-82 -136q-8 1 -15 1q-32 0 -55 -22l-78 39q1 8 1 10q0 32 -23.5 55.5t-56 23.5t-55.5 -23.5t-23 -55.5q0 -24 13 -44l-69 -92q-13 4 -24 4q-32 0 -55.5 -23.5t-23.5 -56t23.5 -55.5t56 -23t56 23t23.5 56q0 24 -14 43l69 92q13 -4 24 -4q31 0 54 23l78 -39
q-1 -8 -1 -10q0 -33 23.5 -56t56 -23t56 23t23.5 56q0 28 -19 50l82 136q8 -1 16 -1q33 0 56 23t23 56t-23 56t-56 23v0z"/>
            <glyph
                glyph-name="101"
                unicode="&#xe678;"
                d="M506 519q-52 0 -89.5 -37t-37.5 -89.5t37.5 -89.5t89.5 -37t89.5 37t37.5 89.5t-37.5 89.5t-89.5 37zM506 323q-29 0 -49 20.5t-20 49t20 48.5t49 20t49 -20t20 -48.5t-20 -49t-49 -20.5zM923 421h-31q-5 63 -29 122q-30 69 -83.5 122.5t-122.5 83.5q-59 25 -122 29v31
q0 12 -8.5 20.5t-20.5 8.5t-20.5 -8.5t-8.5 -20.5v-31q-63 -5 -122 -29q-69 -30 -122.5 -83.5t-83.5 -122.5q-24 -59 -29 -122h-31q-12 0 -20.5 -8.5t-8.5 -20.5t8.5 -20.5t20.5 -8.5h31q5 -63 29 -121q30 -70 83.5 -123.5t122.5 -82.5q59 -25 122 -30v-29q0 -12 8.5 -20.5
t20.5 -8.5t20.5 8.5t8.5 20.5v29q63 5 122 30q69 29 122.5 82.5t83.5 123.5q24 58 29 121h31q12 0 20.5 8.5t8.5 20.5t-8.5 20.5t-20.5 8.5zM535 64v67q0 12 -8.5 20.5t-20.5 8.5t-20.5 -8.5t-8.5 -20.5v-67q-119 10 -204 95t-95 204h70q12 0 20.5 8.5t8.5 20.5t-8.5 20.5
t-20.5 8.5h-70q10 119 95 204t204 95v-65q0 -11 8.5 -19.5t20.5 -8.5t20.5 8.5t8.5 19.5v65q119 -10 204 -95t95 -204h-70q-12 0 -20.5 -8.5t-8.5 -20.5t8.5 -20.5t20.5 -8.5h70q-10 -119 -95 -204t-204 -95z"/>
            <glyph
                glyph-name="fuwuqiguanli"
                unicode="&#xe67a;"
                d="M821 183h-602q-16 0 -27.5 11.5t-11.5 27.5v96q0 16 11.5 27.5t27.5 11.5h602q16 0 27.5 -11t11.5 -28v-96q0 -15 -11.5 -27t-27.5 -12zM578 300q-13 0 -21 -8t-8 -20.5t8 -20.5t20.5 -8t20.5 8t8 20q2 12 -7 20.5t-21 8.5zM676 300q-12 0 -20.5 -8t-8.5 -20.5t8.5 -20.5
t20.5 -8t20.5 8t8.5 20.5t-8.5 20.5t-20.5 8zM801 300h-58v-57h58v57zM821 417h-602q-16 0 -27.5 11t-11.5 28v96q0 16 11.5 27.5t27.5 11.5h602q16 0 27.5 -11.5t11.5 -27.5v-96q0 -17 -11.5 -28t-27.5 -11zM577.5 534q-12.5 0 -20.5 -8.5t-8 -20.5t8 -20.5t20.5 -8.5
t20.5 8.5t8 20.5q2 11 -7 20t-21.5 9zM676 534q-12 0 -20.5 -8.5t-8.5 -20.5t8.5 -20.5t20.5 -8.5t20.5 8.5t8.5 20.5q0 11 -8.5 20t-20.5 9zM801 534h-58v-58h58v58zM821 650h-602q-16 0 -27.5 11.5t-11.5 27.5v96q0 16 11.5 27.5t27.5 11.5h602q16 0 27.5 -11t11.5 -28
v-96q0 -16 -11.5 -27.5t-27.5 -11.5zM577.5 765q-12.5 0 -20.5 -8t-8 -20.5t8 -20.5t20.5 -8t20.5 8t8 20.5t-8 20.5t-20.5 8zM676 765q-12 0 -20.5 -8t-8.5 -20.5t8.5 -20.5t20.5 -8t20.5 8t8.5 20.5t-8.5 20.5t-20.5 8zM801 765h-58v-57h58v57zM209 48h229
q-6 -12 -6 -28.5t6 -28.5h-229q-12 0 -20.5 8t-8.5 20.5t8.5 20.5t20.5 8zM492 165h57v-57h-57v57zM520.5 87q27.5 0 47.5 -20t20 -47.5t-20 -47.5t-47.5 -20t-47.5 20t-20 47.5t20 47.5t47.5 20zM600 48h229q13 0 21 -8t8 -20.5t-8 -20.5t-21 -8h-229q6 12 6 28q0 14 -6 29
z"/>
            <glyph
                glyph-name="leida"
                unicode="&#xe67d;"
                d="M941 565q-35 84 -99.5 148.5t-148.5 99.5q-86 37 -181 37t-181 -37q-84 -35 -148.5 -99.5t-99.5 -148.5q-37 -86 -37 -181t37 -181q35 -84 99.5 -148.5t148.5 -99.5q86 -37 181 -37t181 37q84 35 148.5 99.5t99.5 148.5q37 86 37 181t-37 181zM915 415h-166
q-11 80 -68.5 137.5t-137.5 68.5v166q149 -11 255 -117t117 -255zM481 460l-69 71q32 21 69 28v-99zM439 415h-102q7 40 31 73zM481 353v-144q-55 10 -94.5 49.5t-49.5 94.5h144zM543 353h144q-10 -55 -49.5 -94.5t-94.5 -49.5v144zM543 415v144q55 -10 94.5 -49.5
t49.5 -94.5h-144zM481 787v-166q-62 -8 -112 -46l-116 119q100 84 228 93zM209 652l116 -120q-41 -52 -50 -117h-166q10 135 100 237zM109 353h166q11 -80 68.5 -137.5t137.5 -68.5v-166q-149 11 -255 117t-117 255zM543 -19v166q80 11 137.5 68.5t68.5 137.5h166
q-11 -149 -117 -255t-255 -117z"/>
            <glyph
                glyph-name="shujuzidingyishezhi"
                unicode="&#xe67f;"
                d="M64 64h192v512h-192v-512zM128 512h64v-384h-64v384zM511 192v639h-191v-767h64v703h64v-575h63zM639 640h64v-256h64v320h-192v-384h64v320zM939 313l-46 53q-18 18 -44 18q-27 0 -46 -19l-355 -290v-138h137l354 287q19 18 19 44.5t-19 44.5zM562 1h-51v51l337 268v0v0
l46 -52z"/>
            <glyph
                glyph-name="tubiao"
                unicode="&#xe681;"
                d="M577 753v-425l1 -1l-286 -282q112 -94 258 -94q109 0 201.5 54t146.5 146.5t54 201.5q0 104 -50 194t-136 144.5t-189 61.5zM124 340q10 -144 109 -249l314 249h-423zM532 812q-116 0 -214.5 -57.5t-156 -156t-57.5 -214.5h428v428zM577 328h-1l-3 -2h4v2z"/>
            <glyph
                glyph-name="bingzhuangtu"
                unicode="&#xe686;"
                d="M450 386l40 375q-100 0 -187 -52t-134 -144q-33 -66 -38.5 -138.5t15.5 -137.5t67.5 -121.5t112 -90t138 -38.5t138 16t121.5 67.5t90 111.5q54 106 34 225zM713 778q-77 40 -165 40h-1l-41 -375l398 73q-14 83 -63.5 152.5t-127.5 109.5zM587 765q4 -1 11.5 -2t29.5 -7
t43 -14.5t48 -25.5t49.5 -38.5t43.5 -54.5t33 -73l-291 -58z"/>
            <glyph
                glyph-name="fanghu"
                unicode="&#xe687;"
                d="M828 262q0 2 -1 5.5t-9 9.5t-21 6h-62q-54 182 -136 447l-30 107q-1 0 -4 -1v1q0 10 -46.5 10t-46.5 -10q-48 -144 -172 -559q-15 1 -32 2t-27.5 2t-11.5 1q-9 0 -15 -5t-7 -10l-1 -4l-85 -295l16 -25h769l10 25zM503 735h13.5h13.5q24 -80 55 -181q-32 -8 -68.5 -8
t-68.5 8q30 99 55 181zM517 126q-100 0 -174 37q14 50 50 168q53 -19 123 -19t123 19q35 -115 50 -166q-74 -39 -172 -39z"/>
            <glyph
                glyph-name="zhexiantu"
                unicode="&#xe689;"
                d="M199 299h-66q-14 0 -23.5 -9.5t-9.5 -23.5v-197q0 -13 9.5 -23t23.5 -10h66q13 0 23 10t10 23v197q0 14 -10 23.5t-23 9.5zM363 365h-66q-13 0 -22.5 -9.5t-9.5 -23.5v-263q0 -13 9.5 -23t22.5 -10h66q14 0 23.5 10t9.5 23v263q0 14 -9.5 23.5t-23.5 9.5zM528 464h-66
q-14 0 -23.5 -10t-9.5 -23v-362q0 -13 9.5 -23t23.5 -10h66q13 0 22.5 10t9.5 23v362q0 13 -9.5 23t-22.5 10zM692 398h-66q-13 0 -23 -9.5t-10 -23.5v-296q0 -13 10 -23t23 -10h66q14 0 23.5 10t9.5 23v296q0 14 -9.5 23.5t-23.5 9.5zM856 529h-65q-14 0 -23.5 -9.5
t-9.5 -22.5v-428q0 -13 9.5 -23t23.5 -10h65q14 0 23.5 10t9.5 23v428q0 13 -9.5 22.5t-23.5 9.5zM166 404q25 0 42.5 17.5t17.5 42.5q0 7 -2 14l67 40q17 -15 39 -15q25 0 42.5 17.5t17.5 41.5q0 11 -4 21l77 60q14 -9 32 -9q34 0 51 29l54 -10q3 -22 20 -37t39 -15
q25 0 42.5 17.5t17.5 42.5q0 10 -4 20l75 62q15 -10 33 -10q25 0 42.5 17.5t17.5 42t-17.5 42t-42 17.5t-42 -17.5t-17.5 -42.5q0 -10 3 -20l-75 -62q-15 11 -33 11q-36 0 -52 -32l-53 10q-2 23 -19 38.5t-40 15.5q-25 0 -42.5 -17t-17.5 -42q0 -12 4 -22l-75 -60
q-16 10 -34 10q-24 0 -41.5 -17.5t-17.5 -42.5q0 -6 1 -13l-68 -39q-17 13 -38 13q-25 0 -42.5 -17.5t-17.5 -42t17.5 -42t42.5 -17.5z"/>
            <glyph
                glyph-name="wendang"
                unicode="&#xe690;"
                d="M872 372l-140 23l145 136q5 5 3 11.5t-8 7.5l-153 26l151 142l-383 65l-331 -254l161 -41l-168 -128q-5 -5 -3.5 -12t7.5 -8l152 -40l-156 -119q-5 -5 -3.5 -11.5t7.5 -8.5l402 -104h2q5 0 8 3l312 292q5 5 3 11.5t-8 8.5zM181 356l163 125l213 -55l141 131l147 -25
l-291 -273zM554 80l-373 97l147 112q2 2 3 5l224 -58h2q5 0 8 3l147 137l133 -23z"/>
            <glyph
                glyph-name="hj"
                unicode="&#xe691;"
                d="M668 562q-64 64 -159 63q-93 -1 -158 -69.5t-65 -161.5q1 -46 18.5 -90.5t48.5 -75.5q83 -82 158 -82h1q92 0 158 74t65 168q-1 47 -18.5 95.5t-48.5 78.5v0zM512 232q-74 0 -119 44q-50 49 -51 110q0 68 48 110t119 42h2q28 0 44 -1t37.5 -8.5t36.5 -22.5
q26 -25 37.5 -47.5t12.5 -54.5q0 -70 -49 -120.5t-118 -51.5v0zM512 232zM398 404h57q-1 23 15.5 40t39.5 17v56q-47 -1 -79.5 -34t-32.5 -79v0zM398 404zM508 737q113 0 213 -41.5t163.5 -113t74.5 -156.5l-56 -14q-9 70 -64 125t-140.5 84.5t-185.5 29.5h-5
q-101 0 -187 -30t-140.5 -84.5t-62.5 -124.5l-56 15q10 85 71.5 155.5t160.5 112t214 42.5v0zM508 737zM513 34h-4q-112 0 -211.5 44.5t-162 118.5t-73.5 159l56 16q9 -72 64.5 -129.5t142.5 -90t188 -32.5q100 1 187 35.5t141 93.5t62 129l56 -23q-10 -85 -71 -158.5
t-160.5 -118t-214.5 -44.5v0zM513 34z"/>
            <glyph
                glyph-name="hj1"
                unicode="&#xe692;"
                d="M467 248h87v-87h-87v87zM467 597h87v-261h-87v261zM511 815q-88 0 -169 -34.5t-139.5 -93t-93 -139.5t-34.5 -169q0 -118 58 -218.5t158.5 -159t219.5 -58.5t219.5 58.5t158.5 159t58 218.5q0 88 -35 169t-93.5 139.5t-139 93t-168.5 34.5v0zM511 31q-94 0 -174.5 46.5
t-127.5 127t-47 174.5t47 174.5t127.5 127.5t174.5 47t174.5 -47t127.5 -127.5t47 -174.5t-47 -174.5t-127.5 -127t-174.5 -46.5v0zM511 31z"/>
            <glyph
                glyph-name="hj2"
                unicode="&#xe693;"
                d="M964 639v1q0 1 -0.5 1t-0.5 0.5v0.5v1v1v0.5v0.5v0.5v0.5l-0.5 0.5l-0.5 0.5v1v0v1l-1 1v0v0.5v0.5v0v0.5t-0.5 0.5t-0.5 0.5v0.5v0.5v0.5l-1 1v0v1v0l-0.5 0.5l-0.5 0.5v0.5v0.5v0l-1 1v0l-1 1v0.5t-1 0.5v0.5v0.5q-1 0 -1 0.5t-0.5 0.5h-0.5l-2 3q-1 0 -1 0.5v0.5h-1
l-0.5 0.5l-0.5 0.5v0v1h-1l-0.5 0.5l-0.5 0.5h-1v0.5t-0.5 0.5h-0.5h-0.5t-0.5 0.5v0.5h-1v0l-1 1h-0.5h-0.5h-0.5h-0.5v0.5t-0.5 0.5h-0.5h-0.5h-0.5v0l-1 1h-0.5h-0.5h-1h-0.5h-0.5q0 1 -1 1h-0.5h-0.5h-0.5h-0.5v0h-0.5h-0.5h-1h-1v0h-243q-16 0 -27.5 -11t-11.5 -27.5
t11.5 -28t27.5 -11.5h146l-3 -3l-217 -217v0l-49 -50l-156 156q-12 11 -28 11q-17 0 -28 -11l-283 -283q-11 -11 -11 -27t11.5 -27.5t27.5 -11.5t28 11l255 255l155 -155q12 -12 29 -12q16 0 28 12l183 182q1 2 1 3l112 111v-146q0 -16 11.5 -27.5t27.5 -11.5t27.5 11.5
t11.5 27.5v235v0.5v0.5v0v0.5t0.5 0.5t0.5 1v1v0v4v0zM964 639z"/>
            <glyph
                glyph-name="hj3"
                unicode="&#xe694;"
                d="M508 551q-59 0 -101.5 -42.5t-42.5 -103.5t42.5 -103.5t101.5 -42.5q12 0 26 2q9 2 13.5 9t3 15.5t-8.5 13.5t-15 3q-10 -1 -19 -1q-42 0 -72.5 30.5t-30.5 73.5t30.5 74t73 31t73 -31t30.5 -74q0 -8 -2 -19q-2 -8 3 -15t13.5 -9t15.5 3t8 14q3 14 3 26q0 61 -42.5 103.5
t-102.5 42.5v0zM935 488q-3 13 -16 16q-70 16 -106 79t-15 133q4 13 -6 22q-63 55 -141 82q-13 5 -22 -5q-49 -54 -120.5 -54t-120.5 54q-9 10 -22 5q-78 -27 -141 -82q-10 -9 -6 -22q21 -70 -15 -133t-106 -79q-13 -3 -16 -16q-8 -42 -8 -83t8 -82q3 -14 16 -17
q70 -16 106 -79t15 -133q-4 -13 6 -22q63 -54 141 -82q3 -1 7 -1q9 0 15 6q49 54 120.5 54t120.5 -54q9 -10 22 -5q78 27 141 82q10 9 6 22q-21 70 15 133t106 79q13 3 16 17q7 41 7 82t-7 83v0zM896 343q-78 -24 -118.5 -95.5t-22.5 -151.5q-48 -40 -106 -62
q-59 57 -141 57q-81 0 -140 -57q-58 22 -106 62q19 80 -22 152q-41 71 -119 95q-5 32 -5 62t5 62q78 24 118.5 95.5t22.5 151.5q48 40 105 62q60 -56 141 -56q82 0 142 56q57 -22 105 -62q-18 -80 22.5 -151.5t118.5 -95.5q5 -32 5 -62t-5 -62v0zM896 343z"/>
            <glyph
                glyph-name="xingneng"
                unicode="&#xe698;"
                d="M466 11h-4q-9 1 -16 8.5t-7 16.5l-37 554l-98 -325q-6 -20 -26.5 -19.5t-26.5 20.5l-35 141l-60 -59q-8 -8 -19 -8h-47q-11 0 -19 8t-8 19t8 19t19 8h36l86 86q11 11 26.5 7t18.5 -20l23 -91l113 374q3 10 11 15.5t18 4.5t16.5 -8.5t7.5 -17.5l38 -566l97 291q6 18 24 19
t26 -15l70 -139l22 45q8 15 25 15h187q12 0 20 -8t8 -19t-8 -19t-20 -8h-171l-39 -79q-8 -15 -24.5 -15t-24.5 15l-64 129l-120 -360q-7 -19 -26 -19v0z"/>
            <glyph
                glyph-name="centos"
                unicode="&#xe69a;"
                d="M192 709h149l-65 -65l196 -196v-16h-16l-196 196l-68 -68v149v0zM192 709zM686 709h145v-144l-66 66l-199 -199h-16v16l199 198zM686 709zM550 354h16l197 -196l68 68v-149h-149l65 65l-197 197v15zM550 354zM456 354h16v-15l-199 -199l63 -63h-144v145l66 -66zM456 354z
M192 521l68 68l157 -157h-225v89zM192 521zM417 354l-159 -159l-66 66v93h225zM417 354zM62 391l102 102v-89h281l11 -11l-11 -11h-281v-93zM62 391zM606 432l159 159l66 -66v-93h-225zM606 432zM831 266l-68 -69l-157 157h225v-88zM831 266zM566 393l12 11h281v93l102 -102
l-102 -102v89h-281zM566 393zM550 299l157 -157l-65 -65h-92v222zM550 299zM500 327l11 11l11 -11v-278h92l-105 -105l-105 105h96v278zM500 327zM313 140l159 159v-222h-96zM313 140zM550 486l157 157l-65 65h-92v-222zM550 486zM500 459l11 -12l11 12v277h92l-105 105
l-105 -105h96v-277zM500 459zM313 645l159 -159v222h-96zM313 645z"/>
            <glyph
                glyph-name="mysql"
                unicode="&#xe69b;"
                d="M881 158q-72 2 -116 -16q-1 -1 -9 -3t-11.5 -4.5t-3.5 -7.5q3 -3 5.5 -9.5t3.5 -9.5q15 -24 31 -36q25 -19 38 -28q12 -7 36.5 -18t35.5 -19q8 -4 21 -14t19 -14q1 -1 7.5 -7t11.5 -8v2q-2 2 -5 9t-5 10q-3 3 -9 8.5t-9 8.5q-25 34 -62 60q-3 3 -22 13.5t-30.5 20
t-15.5 19.5l-1 1q11 1 41 10q10 2 29.5 4.5t29.5 4.5q10 3 29 9v5q-5 5 -14.5 17.5t-15.5 17.5q-50 44 -98 73q-11 7 -33.5 17t-28.5 13q-2 1 -7.5 3t-9.5 4t-6 4q-5 6 -9 13.5t-8.5 18t-6.5 14.5q-23 43 -49 104q-2 4 -12.5 29.5t-18.5 37.5q-45 75 -98 126t-132 97
q-19 11 -76 24q-7 1 -22 1.5t-23 1.5q-5 2 -14.5 10.5t-12.5 9.5q-17 11 -34.5 19.5t-41 15.5t-42.5 0t-28 -28q-5 -8 -4 -19t3 -18.5t8 -17.5t10.5 -16t11 -14t8.5 -11q26 -35 31 -45q2 -5 4.5 -15.5t4.5 -16.5q24 -66 31 -79q13 -24 22 -37l7 -7t8 -13q-4 -6 -6 -13.5
t-4 -17t-4 -14.5q-16 -51 -10.5 -106.5t28.5 -93.5q30 -48 62 -35q12 5 17 15.5t7 31t5 27.5q0 3 0.5 6.5t1 6t2.5 4.5v-1q20 -41 24 -49q26 -41 77 -80q4 -3 18.5 -17.5t25.5 -18.5v2h-1l-4 4t-5 4t-5 4q-20 20 -31 35q-35 47 -67 109q-8 17 -25 57q-1 2 -2.5 7t-3 9
t-4.5 5q-1 -1 -12.5 -16t-15.5 -24t-7 -21t-4 -20.5l-3 -25.5t-3 -23q-1 0 -2 -1q-4 1 -7 2.5t-5.5 3t-5 5t-3.5 5t-3.5 6.5l-3 6t-3 6.5t-2.5 6.5q-14 32 -15.5 77t10.5 82q0 1 4.5 13t6.5 18.5t4.5 18.5t-0.5 13q-3 7 -12 16t-10 11q-14 20 -22 38q-7 16 -18 51t-19 53
q-5 11 -30 46q-3 5 -10.5 13.5t-12.5 16t-9 16.5q-8 17 -3 24q2 6 9 8q9 8 37 -5q37 -15 59 -30q3 -2 8 -7t10 -8.5t10 -4.5h13q8 -2 28 -3t30 -4q41 -13 85 -41q120 -76 186 -203q4 -8 9 -21.5t8 -19.5q6 -15 20 -44.5t20 -42.5q27 -59 42 -80q4 -6 15 -10.5t26.5 -9
t19.5 -6.5q4 -1 19.5 -6.5t21.5 -9.5q23 -14 60 -41q1 -1 13 -8t19.5 -13.5t8.5 -12.5v0v0v0zM881 158z"/>
            <glyph
                glyph-name="nginx"
                unicode="&#xe69c;"
                d="M123 492l89 -105v106q0 11 6 16t16 5t15.5 -5t5.5 -16v-141q0 -23 -25 -23q-6 0 -11 1.5t-9.5 4.5t-8.5 7t-7 8l-88 105v-105q0 -11 -6 -16t-16 -5t-16 5t-6 16v138q0 9 3 14t10 8.5t15 3.5q6 0 10.5 -1.5t8 -4.5t7 -7t7.5 -9v0zM623 492l90 -105v106q0 11 5.5 16t15.5 5
t16 -5t6 -16v-141q0 -23 -25 -23q-7 0 -12 1.5t-9.5 4.5t-8 7t-7.5 8l-87 105v-105q0 -11 -6.5 -16t-15.5 -5q-10 0 -16 5t-6 16v138q0 9 2 14q3 5 10 8.5t15 3.5q6 0 10.5 -1.5t8 -4.5t7.5 -7q3 -4 7 -9v0zM785 367l52 58l-43 52q-7 8 -10 13.5t-3 10.5t6 9t15 4t14.5 -4.5
t15.5 -16.5l34 -43l37 43q6 7 8 9q3 4 6 6.5t7 4t8 1.5q9 0 14.5 -4t5.5 -10q0 -8 -12 -22l-45 -53l49 -58q6 -8 9 -13t3 -10q0 -4 -2.5 -7.5t-7.5 -5.5t-11 -2t-11 2t-7.5 5t-10.5 13l-40 49l-44 -51q-5 -6 -7 -8.5t-5 -4.5t-7 -3.5t-9 -1.5q-9 0 -14.5 4t-5.5 12
q0 9 11 22v0zM542 455v37q0 11 -6.5 16.5t-16.5 5.5q-11 0 -17 -5.5t-6 -16.5v-37h46zM496 426v-75q0 -11 6.5 -16.5t16.5 -5.5t16.5 5.5t6.5 16.5v75h-46zM359 440q-15 -2 -15 -17q0 -8 5 -13t12 -5h65l-21 -39h-68l-27 58l30 55h65l9 -18h40l-26 54h-110l-48 -90l44 -95
h112l60 110h-127zM359 440z"/>
            <glyph
                glyph-name="tomcat"
                unicode="&#xe69d;"
                d="M517 597q2 -52 14 -98q3 -7 8.5 -19t25.5 -44t42 -58.5t58 -54t74 -40.5q61 43 101 107l6 11q5 8 9 16l5 11q38 81 36 175v0q0 19 -4.5 59t-11.5 53q-24 -9 -52.5 -32t-35.5 -46q-84 12 -168 -2q-11 45 -88 81q-10 -17 -15 -52t-4 -67v0v0zM517 597zM950 114
q-26 29 -79 27q-22 26 -108 117l-18 -12l-16 5q-42 14 -81 43t-63.5 57.5t-46 63t-28 48t-10.5 22.5l-1 3v1q-79 -25 -156 -71.5t-126 -98.5l-11 -11q-6 -6 -15 -17q-52 -58 -92 -117.5t-40 -72.5v-8h100l-1 9q-4 22 3.5 48t25.5 47q29 36 76 47q14 5 42 5.5t49 -1.5l22 -2
q113 -10 229 -52.5t261 -117.5h96l1 6q3 14 -13 32v0zM950 114zM449 172q-19 13 -47 3q-15 17 -22 42h-2.5h-1.5q-6 1 -15 1.5t-33.5 2t-38.5 -0.5q43 -39 98 -77h74v8q0 13 -12 21v0zM449 172zM187 335l7 7l4 4q-27 44 -32 83q-7 54 24 93q41 50 127 36q-1 -13 3 -19
q10 -15 50 -18t71 10q-21 29 -57 45t-50 9q-8 -3 -12 -13q-30 5 -45 5q-63 0 -99 -45t-27 -105q6 -44 36 -92v0zM187 335z"/>
            <glyph glyph-name="windows" unicode="&#xe69e;" d="M513 350v-315l413 -68v383h-413zM513 350zM926 419v384l-413 -69v-315h413zM926 419zM444 419v303l-350 -58v-245h350zM444 419zM94 350v-247l350 -57v304h-350zM94 350z"/>
            <glyph
                glyph-name="activemq"
                unicode="&#xe6a0;"
                d="M129 343l-7 18h-59l-7 -18q-4 -11 -6.5 -15t-9.5 -4q-6 0 -10 4t-4 9q0 3 1 6.5t3 8.5l37 95q2 3 4 9t4.5 10t7 6t10.5 2t10 -2t6.5 -6t4.5 -8t4 -11l38 -94q5 -11 5 -16t-4.5 -9t-10.5 -4q-3 0 -5.5 1.5t-4 3.5t-3.5 6.5t-4 7.5v0zM71 383h43l-21 60zM278 358
q0 -5 -3.5 -11t-9.5 -11t-15.5 -8.5t-21.5 -3.5q-25 0 -39 15t-14 39q0 17 6.5 29.5t18.5 19.5t29 7q11 0 19.5 -3t15 -8t9.5 -10.5t3 -10t-3.5 -8t-8.5 -3.5q-4 0 -6 2l-5 5q-5 8 -10.5 11.5t-13.5 3.5q-12 0 -19.5 -9t-7.5 -26q0 -7 2 -13.5t5.5 -11t8.5 -7t11 -2.5
q9 0 14.5 4t10.5 12q2 4 5 6.5t7 2.5q5 0 8.5 -3.5t3.5 -7.5zM303 432h3v16v10.5t1.5 6t4.5 4.5t7 2q5 0 9 -4q3 -3 4 -6.5t1 -10.5v-18h10q5 0 8 -3t3 -7q0 -5 -4 -7.5t-12 -2.5h-5v-50q0 -6 0.5 -9.5t2 -5.5t6.5 -2q2 0 6 1t7 1t5.5 -3t2.5 -6q0 -7 -7 -10.5t-21 -3.5
q-12 0 -18.5 4.5t-8.5 12t-2 19.5v52h-4q-6 0 -9 3t-3 7t3 7t10 3zM386.5 447q-5.5 0 -9.5 3.5t-4 9.5t4 9.5t10 3.5q5 0 9 -3.5t4 -9.5t-4 -9.5t-9.5 -3.5zM400 419v-78q0 -9 -4 -13t-10 -4t-9.5 4.5t-3.5 12.5v77q0 8 3.5 12t9.5 4t10 -4t4 -11zM447 417l22 -61l24 64
q2 8 5 11t8 3t9 -3.5t4 -7.5q0 -2 -1 -4.5t-2 -4.5q0 -1 -1 -5l-26 -64q-2 -3 -3 -7q-2 -5 -4 -8t-5.5 -4.5t-7.5 -1.5q-6 0 -9.5 2.5t-5 6t-5.5 12.5l-25 64q-1 2 -2 4.5l-2 5t-1 3.5q0 3 2 6t5 4.5t6 1.5q7 0 9.5 -4t5.5 -13zM611 372h-53q0 -9 3.5 -16t9.5 -10.5t14 -3.5
q4 0 8 1t8 3.5t7 5.5t8 7q2 2 6 2t7 -2t3 -6t-3 -9t-9 -9.5t-14.5 -7.5t-20.5 -3q-26 0 -40.5 15t-14.5 40q0 12 3.5 22.5t10.5 17.5t17 11t22 4q16 0 27.5 -6.5t17 -17t5.5 -21.5t-6 -14t-16 -3zM558 388h49q-1 14 -7.5 20.5t-17.5 6.5q-10 0 -16.5 -7t-7.5 -20zM707 348
l-23 93v-100q0 -9 -4 -13t-10 -4t-9.5 4t-3.5 13v115q0 9 4.5 12.5t13.5 3.5h9q8 0 12 -1.5t5.5 -5.5t4.5 -13l21 -79l21 79q2 9 4 13t5.5 5.5t11.5 1.5h9q9 0 14 -3.5t5 -12.5v-115q0 -9 -4 -13t-10 -4t-9.5 4t-3.5 13v100l-24 -93q-2 -9 -3.5 -13t-5.5 -7.5t-10 -3.5
q-5 0 -9 2.5t-6 5.5t-3 8zM944 345q6 -5 14 -9t10.5 -6.5t2.5 -6.5q0 -3 -3 -6.5t-8 -3.5q-3 0 -8 2.5t-11.5 6.5t-13.5 9q-15 -7 -36 -7q-16 0 -29.5 5.5t-23 15.5t-14 24t-4.5 31q0 16 5 30t14 24t22 15t30 5q23 0 39 -9t24.5 -26t8.5 -40q0 -34 -19 -54zM921 361
q6 7 9 16.5t3 22.5q0 16 -5.5 27.5t-15 17.5t-21.5 6q-9 0 -16.5 -3.5t-13 -9.5t-8.5 -16t-3 -22q0 -25 11.5 -39t29.5 -14q8 0 15 4q-4 3 -11 6.5t-9.5 5.5t-2.5 5t2.5 5.5t5.5 2.5q9 0 30 -15z"/>
            <glyph
                glyph-name="liebiao"
                unicode="&#xe6a1;"
                d="M67 738v-722h884v722h-884zM398 274v155h221v-155h-221zM619 222v-154h-221v154h221zM619 635v-155h-221v155h221zM343 635v-155h-221v155h221zM122 429h221v-155h-221v155zM675 429h221v-155h-221v155zM675 480v155h221v-155h-221zM122 222h221v-154h-221v154zM675 68
v154h221v-154h-221zM675 68z"/>
            <glyph
                glyph-name="shuaxin"
                unicode="&#xe6a2;"
                d="M802 319q-6 -114 -89.5 -193t-198.5 -79q-120 0 -204 83.5t-84 202.5q0 115 79.5 197.5t194.5 88.5v-136l302 163l-302 191v-137q-98 -3 -180 -53t-129.5 -133.5t-47.5 -180.5q0 -100 50 -184.5t135 -134t186 -49.5q98 0 182 47t134.5 128.5t53.5 178.5h-82zM802 319z
"/>
            <glyph glyph-name="tubiaoqiehuan" unicode="&#xe6a3;" d="M125 69v616h-58v-673h901v57h-843v0zM686 460h-119v-332h119v332zM853 627h-119v-499h119v499zM520 569h-119v-441h119v441v0zM351 355h-119v-227h119v227v0zM351 355z"/>
            <glyph
                glyph-name="submit"
                unicode="&#xe6a4;"
                d="M816 704q-83 83 -194.5 112.5t-222.5 0t-195 -112.5q-50 -51 -83 -118q-59 -119 -37 -257t120 -237q84 -83 195 -112.5t222.5 0t194.5 112.5l6.5 6.5t7.5 8.5q76 84 101.5 192.5t-4.5 216t-111 188.5v0zM812 495l-379 -314q-9 -10 -22 -11t-22 8l-25 24q-2 1 -4 4
l-155 155q-8 8 -7 19.5t10 20.5l19 18q8 9 19.5 10t19.5 -7l142 -141l337 279q10 10 23 11t22 -8l24 -23q9 -8 8.5 -21.5t-10.5 -23.5v0zM812 495z"/>
            <glyph
                glyph-name="click"
                unicode="&#xe6a5;"
                d="M458 475l87 -502q64 66 117 112l116 -156q8 -11 22 -1l50 36q14 11 6 22l-113 151q26 11 65 23.5t65 20.5l26 7zM319 243l-129 -94q-15 -11 -17 -29t9.5 -33t30 -18.5t32.5 6.5l129 95q15 10 17.5 29t-9 34t-30.5 18t-33 -8v0zM927 631q-12 15 -30.5 18t-33.5 -8
l-128 -93q-15 -12 -17.5 -30t9 -33t30.5 -18.5t34 7.5l128 94q15 11 17 29.5t-9 33.5v0zM329 728q-11 15 -29.5 18t-33.5 -8t-17 -29t9 -33l100 -132q11 -14 29.5 -17t32.5 7q15 11 17.5 29.5t-8.5 32.5zM582 572q18 -3 33 7.5t18 29.5l20 159q2 18 -9.5 33t-30.5 19
q-18 3 -33 -8t-18 -29l-20 -160q-2 -18 9.5 -33t30.5 -18v0zM339 394q2 19 -9.5 34t-30.5 18l-161 26q-19 3 -34 -8t-17 -29q-2 -19 9.5 -34t30.5 -18l161 -26q18 -3 33 7.5t18 29.5v0zM339 394z"/>
            <glyph
                glyph-name="click2"
                unicode="&#xe6a6;"
                d="M512 803q-116 0 -214.5 -57t-155.5 -155t-57 -214t57 -214.5t155.5 -155.5t214.5 -57t214 57t155 155.5t57 214.5t-57 214t-155 155t-214 57v0zM665 138l-88 -45l-82 188l-103 -92v444l307 -308l-126 -10zM665 138z"/>
            <glyph
                glyph-name="zonglan"
                unicode="&#xe6a7;"
                d="M333 627q0 -25 -17.5 -42.5t-41.5 -17.5h-120q-24 0 -41.5 17.5t-17.5 42.5v119q0 24 17.5 41.5t41.5 17.5h120q24 0 41.5 -17t17.5 -42v-119zM333 627zM631 627q0 -25 -17.5 -42.5t-41.5 -17.5h-120q-24 0 -41.5 17.5t-17.5 42.5v119q0 25 17.5 42t41.5 17h120
q24 0 41.5 -17t17.5 -42v-119zM631 627zM929 627q0 -25 -17.5 -42.5t-41.5 -17.5h-119q-25 0 -42.5 17.5t-17.5 42.5v119q0 24 17.5 41.5t42.5 17.5h119q24 0 41.5 -17t17.5 -42v-119v0zM929 627zM333 329q0 -25 -17.5 -42.5t-41.5 -17.5h-120q-24 0 -41.5 17.5t-17.5 42.5
v119q0 24 17.5 41.5t41.5 17.5h120q24 0 41.5 -17.5t17.5 -41.5v-119zM333 329zM631 329q0 -25 -17.5 -42.5t-41.5 -17.5h-120q-24 0 -41.5 17.5t-17.5 42.5v119q0 24 17.5 41.5t41.5 17.5h120q24 0 41.5 -17.5t17.5 -41.5v-119zM631 329zM929 329q0 -25 -17.5 -42.5
t-41.5 -17.5h-119q-25 0 -42.5 17.5t-17.5 42.5v119q0 24 17.5 41.5t42.5 17.5h119q24 0 41.5 -17.5t17.5 -41.5v-119v0zM929 329zM333 30q0 -24 -17.5 -41.5t-41.5 -17.5h-120q-24 0 -41.5 17.5t-17.5 41.5v120q0 24 17.5 41.5t41.5 17.5h120q24 0 41.5 -17.5t17.5 -41.5
v-120zM333 30zM631 30q0 -24 -17.5 -41.5t-41.5 -17.5h-120q-24 0 -41.5 17.5t-17.5 41.5v120q0 24 17.5 41.5t41.5 17.5h120q24 0 41.5 -17.5t17.5 -41.5v-120zM631 30zM929 30q0 -24 -17.5 -41.5t-41.5 -17.5h-119q-25 0 -42.5 17.5t-17.5 41.5v120q0 24 17.5 41.5
t42.5 17.5h119q24 0 41.5 -17.5t17.5 -41.5v-120v0zM929 30z"/>
            <glyph glyph-name="liebiaomoshi" unicode="&#xe6a8;" d="M323 596v125h616v-125h-616zM77 229h123v-123h-123v123zM77 475h123v-123h-123v123zM77 721h123v-123h-123v123zM938 350h-615v125h615v-125v0zM938 104h-615v125h615v-125v0zM938 104z"/>
            <glyph
                glyph-name="qiehuanyingyong"
                unicode="&#xe6a9;"
                d="M432 798h-256q-23 0 -39 -16t-16 -39v-255q0 -23 16 -39t39 -16h256q22 0 38.5 16t16.5 39v255q0 23 -16.5 39t-38.5 16v0zM432 798zM432 383h-256q-23 0 -39 -16.5t-16 -38.5v-255q0 -23 16 -39t39 -16h256q22 0 38.5 16t16.5 39v255q0 22 -16.5 38.5t-38.5 16.5v0z
M432 383zM846 798h-256q-23 0 -39 -16t-16 -39v-255q0 -23 16 -39t39 -16h256q23 0 39 16t16 39v255q0 23 -16 39t-39 16v0zM846 798zM846 383h-256q-23 0 -39 -16.5t-16 -38.5v-255q0 -23 16 -39t39 -16h256q23 0 39 16t16 39v255q0 22 -16 38.5t-39 16.5v0zM846 383z"/>
            <glyph
                glyph-name="sousuo"
                unicode="&#xe6aa;"
                d="M949 43l-182 182q75 102 75 229q0 105 -52 194t-141 141t-194 52t-194 -52t-141 -141t-52 -194t52 -194t141 -141t194 -52q127 0 229 75l182 -181q17 -18 41 -18t41.5 17.5t17.5 41.5t-17 41v0zM163 454q0 121 85.5 206.5t206.5 85.5t206.5 -85.5t85.5 -206.5
t-85.5 -206.5t-206.5 -85.5t-206.5 85.5t-85.5 206.5z"/>
            <glyph
                glyph-name="shezhi"
                unicode="&#xe6ab;"
                d="M958 432q0 12 -9 21t-21 9h-46q-14 0 -27 9.5t-17 23.5l-24 57q-6 12 -4 28t12 26l33 33q8 8 8 20.5t-8 21.5l-55 55q-9 8 -21.5 8t-20.5 -8l-33 -33q-10 -10 -26 -12t-28 4l-57 24q-14 4 -23.5 17t-9.5 27v46q0 12 -9 21t-21 9h-77q-13 0 -21.5 -9t-8.5 -21v-46
q0 -14 -9.5 -27t-23.5 -17l-57 -24q-13 -6 -29 -4t-26 12l-32 33q-9 8 -21 8t-21 -8l-55 -55q-9 -9 -9 -21.5t9 -20.5l32 -33q10 -10 12.5 -26t-4.5 -28l-23 -57q-4 -14 -17 -23.5t-28 -9.5h-45q-13 0 -21.5 -9t-8.5 -21v-77q0 -13 8.5 -21.5t21.5 -8.5h45q15 0 28 -9.5
t17 -23.5l23 -57q7 -13 4.5 -29t-12.5 -26l-32 -32q-9 -9 -9 -21t9 -21l55 -55q9 -9 21 -9t21 9l32 32q10 10 26 12.5t29 -4.5l57 -23q14 -5 23.5 -18t9.5 -27v-45q0 -12 8.5 -21t21.5 -9h77q12 0 21 8.5t9 21.5v45q0 14 9.5 27t23.5 18l57 23q12 7 28 4.5t26 -12.5l33 -32
q8 -9 20.5 -9t21.5 9l55 55q8 9 8 21t-8 21l-33 32q-10 10 -12 26t4 29l24 57q4 14 17 23.5t27 9.5h46q12 0 21 8.5t9 21.5v77zM684 393q0 -71 -50.5 -121t-121.5 -50t-121 50t-50 121t50 121.5t121 50.5t121.5 -50.5t50.5 -121.5z"/>
            <glyph
                glyph-name="shijian"
                unicode="&#xe6ad;"
                d="M565 371v3q0 28 -24 43l-7 167q0 7 -6 14.5t-16 7.5t-15.5 -7t-6.5 -15l-8 -168q-22 -15 -22 -42q0 -22 15.5 -37.5t36.5 -15.5q3 0 7 1l101 -90q5 -5 13.5 -5.5t19.5 8.5q8 10 7.5 18.5t-5.5 13.5zM829 387h-16q-6 0 -10 -4t-4 -9.5t4 -9.5t10 -4h16q6 0 10 4t4 9.5
t-4 9.5t-10 4zM212 387h-17q-5 0 -9 -4t-4 -9.5t4 -9.5t9 -4h17q5 0 9 4t4 9.5t-4 9.5t-9 4zM512.5 87q-5.5 0 -9.5 -4t-4 -10v-16q0 -6 4 -10t9.5 -4t9.5 4t4 10v16q0 6 -4 10t-9.5 4zM512.5 661q5.5 0 9.5 4t4 9v17q0 5 -4 9t-9.5 4t-9.5 -4t-4 -9v-17q0 -5 4 -9t9.5 -4z
M512.5 801q-116.5 0 -215 -57t-155.5 -155.5t-57 -215t57 -215t155.5 -155.5t215 -57t215 57t155.5 155.5t57 215t-57 215t-155.5 155.5t-215 57zM512.5 29q-93.5 0 -173 46.5t-125.5 125.5t-46 172.5t46 173t125.5 125.5t173 46t172.5 -46t125.5 -125.5t46.5 -173
t-46.5 -172.5t-125.5 -125.5t-172.5 -46.5z"/>
            <glyph
                glyph-name="user"
                unicode="&#xe6af;"
                d="M515 828q-90 0 -172.5 -35t-142 -95t-95 -142t-35.5 -172.5t35.5 -173t95 -142t142 -95t173 -35.5t173 35.5t142 95t94.5 142t35 173t-35 172.5t-94.5 142t-142 95t-173.5 35v0zM797 114q-25 22 -91 67v0q-15 11 -55 27.5t-63 23.5q-14 6 -13 39h-1q33 25 53.5 71
t20.5 97q0 40 -5.5 71.5t-19 60t-41 44.5t-67.5 16q-133 0 -133 -192q0 -51 21 -97t55 -71h-2q1 -33 -13 -39q-23 -6 -63.5 -23.5t-54.5 -27.5q-68 -47 -91 -67q-51 53 -79.5 122.5t-28.5 146.5q0 106 52 195.5t142 141.5t195.5 52t195.5 -52t142 -141.5t52 -195.5
q0 -77 -28.5 -146t-79.5 -123v0v0zM797 114z"/>
            <glyph
                glyph-name="door"
                unicode="&#xe6b1;"
                d="M730 831h-185h-243q-6 0 -21.5 -13.5t-28.5 -27.5l-13 -13h550l-2 2l-4.5 4.5t-7 7.5t-8.5 8.5t-9.5 9t-9 8.5t-8 7t-6.5 5t-4 2zM770 732h-514q-11 0 -19 -8t-8 -19v-735q0 -11 8 -19t19 -8h514q11 0 19 8t8 19v735q0 11 -8 19t-19 8zM510.5 79q-17.5 0 -30 12.5
t-12.5 30t12.5 30t30 12.5t30 -12.5t12.5 -30t-12.5 -30t-30 -12.5zM510.5 200q-17.5 0 -30 12.5t-12.5 30t12.5 30t30 12.5t30 -12.5t12.5 -30t-12.5 -30t-30 -12.5zM688 379q0 -5 -4 -9t-10 -4h-324q-6 0 -10 4t-4 9v101q0 6 4 10t10 4h324q6 0 10 -4t4 -10v-101zM688 547
q0 -6 -4 -10t-10 -4h-324q-6 0 -10 4t-4 10v101q0 5 4 9.5t10 4.5h324q6 0 10 -4.5t4 -9.5v-101z"/>
            <glyph
                glyph-name="yingyongzonglan"
                unicode="&#xe6b3;"
                d="M585 779h-217v-217h217v217zM548 598h-144v145h144v-145zM585 489h-217v-217h217v217zM548 308h-144v145h144v-145zM874 489h-217v-217h217v217zM838 308h-145v145h145v-145zM947 686l-165 165l-165 -165l165 -164zM303 779h-217v-217h217v217zM266 598h-144v145h144
v-145zM303 489h-217v-217h217v217zM266 308h-144v145h144v-145zM369 -3h217v217h-217v-217zM405 178h145v-145h-145v145zM659 -3h217v217h-217v-217zM695 178h145v-145h-145v145zM87 -4l218 -1v218h-217zM124 176h144v-144h-144v144z"/>
            <glyph
                glyph-name="xingweifenxi"
                unicode="&#xe6b4;"
                d="M518 755l-61 -2q-103 -7 -188.5 -62t-135 -144.5t-49.5 -193.5q0 -109 54 -202t146.5 -146.5t201.5 -53.5q104 0 193.5 49.5t144.5 135t62 188.5l2 60h-370v371zM827 323q-12 -138 -109 -225.5t-232 -87.5q-93 0 -172 46t-125 125t-46 172q0 135 88 232t225 109v-371h371
zM827 323zM548 814v-399h399q0 106 -54 198t-146.5 146.5t-198.5 54.5v0zM610 750q30 -4 72 -22q59 -25 107 -73t73 -107q16 -38 21 -71h-273v273zM610 750z"/>
            <glyph
                glyph-name="tiyanjiankong"
                unicode="&#xe6b5;"
                d="M938 768h-854q-13 0 -22 -9t-9 -22v-559q0 -13 9 -22t22 -9h131q14 0 24 11l173 216l80 -66q9 -8 21.5 -7t20.5 10l154 166q24 -14 52 -14q41 0 70 29t29 70t-29 70t-70 29t-70.5 -29t-29.5 -70q0 -19 8 -37l-140 -150l-80 66q-10 9 -23 7q-13 -1 -21 -11l-184 -228h-85
v497h792v-497h-428q-13 0 -22 -9t-9 -22v-152h-182q-13 0 -22 -9t-9 -22t9 -22t22 -9h417q13 0 22 9t9 22t-9 22t-22 9h-173v121h428q13 0 22 9t9 22v559q0 13 -9 22t-22 9v0zM740 600q15 0 26 -11t11 -26.5t-11 -26.5t-26.5 -11t-26.5 11t-11 26.5t11 26.5t27 11v0z
M740 600z"/>
            <glyph
                glyph-name="uyunlogo"
                unicode="&#xe6b6;"
                d="M888 698h1l-333 124q-41 15 -82 0l-319 -119q-5 -2 -9 -4q-27 -8 -43 -28l412 -152l412 152q-8 9 -17.5 15.5t-15.5 9.5zM720 273v297l-200 -74v-319l186 75q14 5 14 21zM932 648l-108 -39v-336q0 -39 -21.5 -71t-57.5 -47l-225 -91v-114l388 145q17 6 28 21.5t11 34.5
v446q0 29 -15 51zM324 252l187 -75v319l-201 74v-297q0 -16 14 -21zM285 155q-36 15 -57.5 47t-21.5 71v336l-108 40q-13 -21 -14 -44v-454q0 -19 10.5 -34.5t27.5 -21.5l389 -145v114z"/>
            <glyph
                glyph-name="jinggao"
                unicode="&#xe6b7;"
                d="M846 146l-64 113v236q0 77 -51 147q-51 71 -130 101h-1l-12 4v8q0 32 -23 54.5t-55 22.5t-54.5 -22.5t-22.5 -54.5v-8q-7 -2 -10 -3h-0.5h-0.5q-80 -29 -133 -101q-51 -70 -51 -148v-236l-69 -121q-13 -23 0.5 -46.5t40.5 -23.5h170q7 -48 44 -80t86.5 -32t86.5 32t44 80
h170q19 0 33 13.5t14 33.5q0 18 -12 31v0v0zM510 792q15 0 26 -10.5t11 -25.5q-6 2 -12 3h-5h-3q-11 2 -17.5 2t-17.5 -2h-2h-5q-6 -1 -11 -2q0 14 11 24.5t25 10.5v0v0zM510 -4q-32 0 -57 20.5t-32 51.5h179q-7 -31 -32 -51.5t-58 -20.5v0v0zM811 108h-601q-4 0 -6 3
q-2 4 0 7l72 126q2 4 2 10v241q0 66 45 126t113 85q25 8 49 12h4q3 0 9 1q8 1 11.5 1t11.5 -1q6 -1 9 -1h4q25 -4 53 -13q66 -25 110 -85t44 -125v-241q0 -6 3 -10l68 -120q2 -3 4 -5t2 -4q0 -7 -7 -7v0v0v0zM811 108z"/>
            <glyph
                glyph-name="gaojing"
                unicode="&#xe6b8;"
                d="M891 468l-129 49l-162 193q-52 63 -141 86q-90 23 -176 -6l-1 -1q-5 -2 -12 -5l-5 7q-22 26 -56 29t-60.5 -18.5t-29.5 -56t19 -60.5l5 -6q-5 -6 -7 -9v-1q-46 -79 -40 -173q6 -93 58 -156l161 -194l26 -147q5 -28 32.5 -38t49.5 9l139 116q39 -35 91 -36t93 33
q40 33 48.5 85t-17.5 96l139 115q16 14 18 34.5t-11 36.5q-13 15 -32 18v0v0zM176 768q12 10 27.5 9t26.5 -12q-6 -4 -12 -7l-4 -4q-1 0 -2 -1q-10 -6 -15.5 -10.5t-13.5 -13.5l-1 -1q-3 -2 -5 -4q-4 -4 -8 -9q-9 12 -7 27.5t14 25.5v0v0zM718 116q-26 -22 -61 -22.5
t-61 20.5l147 122q15 -30 8.5 -64t-33.5 -56v0v0zM888 413l-493 -410q-3 -3 -7 -2q-3 2 -4 6l-27 152q-1 5 -5 10l-165 198q-44 54 -48.5 134t34.5 146q15 24 32 44q2 1 4 3t6 7q6 6 9 8.5t10 6.5q6 4 8 5t4 3q23 14 52 25q71 25 148 6t121 -72l165 -198q4 -5 9 -7l138 -52
q3 -1 6 -1q2 0 4 -3q5 -5 -1 -9v0v0v0zM888 413z"/>
            <glyph
                glyph-name="usericon"
                unicode="&#xe6b9;"
                d="M512 288q-83 0 -149.5 -21.5t-106.5 -55.5t-66 -78.5t-36 -86t-10 -83.5h736q0 42 -9.5 83.5t-36 86t-66.5 78.5t-106 55.5t-150 21.5v0zM183 -3q4 31 13.5 60t33.5 65t58 62.5t92 45t132 18.5t132 -18.5t92.5 -45t58 -62.5t33 -65t13.5 -60h-658zM183 -3zM512 335
q54 0 101.5 42t74.5 106.5t27 130.5q0 97 -57.5 151t-145.5 54t-145 -54t-57 -151q0 -66 26.5 -130.5t74 -106.5t101.5 -42v0zM512 782q32 0 60 -9t52.5 -28t39 -52.5t14.5 -78.5q0 -91 -51.5 -166t-114.5 -75t-114.5 75t-51.5 166q0 45 14.5 78.5t39 52.5t52.5 28t60 9v0z
M512 782z"/>
            <glyph
                glyph-name="redis"
                unicode="&#xe6c4;"
                d="M579 138q-40 -21 -68 -22.5t-59 14.5q-19 9 -118.5 51.5t-190 80l-90.5 37.5v0v-108q0 -12 37 -30q25 -12 183 -77.5t179 -75.5q31 -16 59 -14.5t67 22.5q28 14 180.5 79.5t176.5 78.5v0q36 18 36 32v106v0l-86 -37t-184 -81t-122 -56v0zM579 138zM579 289
q-40 -21 -68 -22t-59 15q-19 9 -118.5 51t-189.5 80t-91 38v0v-108q0 -13 37 -31q25 -12 183 -77t179 -75q31 -16 59 -15t67 22q28 14 180.5 79.5t176.5 78.5q36 19 36 32v107v0l-86 -37.5t-184 -81t-122 -56.5v0zM579 289zM971 606q1 13 -36 26q-23 9 -173.5 68t-174.5 68
q-37 13 -59.5 12.5t-65.5 -16.5q-50 -17 -373 -144q-18 -7 -27 -14t-8 -14v0v-106q355 -149 398 -170q31 -16 59 -14.5t68 22.5q24 12 121.5 56t185.5 83t86 38zM852 603l-139 -55l-126 49l140 56zM595 551l-65 -95l-148 62zM483 694l-20 38l64 -25l60 20l-16 -40l61 -23
l-79 -8l-18 -43l-29 48l-92 8zM325 640q47 0 80.5 -12.5t33.5 -31t-33.5 -31.5t-80.5 -13t-80.5 13t-33.5 31t33.5 31t80.5 13v0zM325 640z"/>
            <glyph
                glyph-name="apache"
                unicode="&#xe6c5;"
                d="M167 619q8 5 17 2t13 -11q5 -9 8.5 -16t23 -38t38 -57t51 -66t65.5 -73.5t77.5 -70t90.5 -63.5q178 -108 398 -206q1 5 1.5 9.5t-1 9t-3.5 8.5t-6.5 9.5t-8.5 10t-11.5 12l-14.5 14.5t-18 17.5t-20 20.5q-14 13 -35 37t-34.5 40t-45.5 56t-43 52q-64 -22 -152 -22h-1
q-9 0 -15.5 6.5t-6.5 15.5t6.5 15.5t15.5 6.5v0q37 0 78 7q25 3 44 9q-26 31 -45 53q-41 -5 -93 -5q-66 0 -99 4q-9 1 -15 8t-5 16.5t8 15.5t17 5l4.5 -0.5t12.5 -1t18.5 -1t24 -1t27.5 -0.5h30.5t31.5 1q-42 45 -71 68q-81 66 -184.5 108.5t-178.5 39.5l-58 150
q-3 7 -10 10t-15 1q-7 -3 -10.5 -10.5t-0.5 -14.5l58 -151q-4 -5 -9 -14t-15.5 -38t-14.5 -59.5t1 -75.5t23.5 -88.5t61.5 -96.5t108 -101q79 -60 165 -103.5t157.5 -64.5t137 -30t110 -6.5t70.5 13.5q-215 96 -393 203q-66 39 -128.5 95.5t-102 103.5t-75 98t-47 71.5
t-17.5 33.5q-4 8 -1 16.5t11 12.5v0zM167 619z"/>
            <glyph
                glyph-name="zhuye"
                unicode="&#xe6c8;"
                d="M939 439l-345 359q-34 34 -81.5 34t-80.5 -34l-345 -359q-16 -17 -23 -35t-6.5 -28.5t4.5 -18.5q19 -42 59 -42h59v-308v-25t1 -19t3.5 -16t6.5 -10.5t11 -8t17 -3.5t24 -2h186v292v13q-1 12 1.5 14t16.5 2h8h116h8.5h7.5t6 -0.5t5 -1t3.5 -1.5t2.5 -2.5t1.5 -3.5t1.5 -5
t0.5 -6.5t0.5 -8.5v-292h175q46 0 60 17.5t14 66.5v308h48q40 0 59 42q3 8 4 18.5t-6 28.5t-23 35v0v0zM884 387h-99v-367v-10.5v-7t-1.5 -5t-2 -2.5t-4 -2t-5.5 -0.5t-8 0t-10 0.5h-75v241q0 47 -20 64t-69 17h-167q-24 0 -37 -3t-19.5 -14.5t-7.5 -23.5t-1 -40v-241h-55
h-12.5h-12t-9 0.5t-8.5 2.5l-5 5t-4 7.5t-1 11.5v367h-85q-6 0 -3 4q3 5 11 14l300 313q17 18 39 18t38 -18l325 -318q4 -3 10 -8l3 -3t1 -2v0h-6zM905 378z"/>
            <glyph
                glyph-name="wenti"
                unicode="&#xe6c9;"
                d="M506 476q31 28 31 83q0 31 -11 55v-3q-12 27 -32 39q-21 13 -48 13q-40 0 -66 -26t-26 -78q0 -51 26 -78t66 -27q19 0 36 7zM521 576zM785 410v268q-2 37 -5.5 54.5t-16 30t-33 14.5t-61.5 1h-449q-36 0 -57.5 -0.5t-39.5 -4.5t-26 -9.5t-14 -18.5t-7 -26.5t-1 -38.5
v-256v-122v35v-105l129 105h483q43 0 73 23q25 20 25 53v-3zM570 367q-4 1 -8 3t-7 3t-7 3.5t-6 3.5t-6.5 4.5t-6.5 4.5t-8 6t-8 6q-5 -3 -10 -4.5t-13 -2.5t-12.5 -1h-16.5h-17q-45 0 -82.5 21.5t-57.5 60t-20 86.5q0 49 20 88.5t57.5 60t83.5 20.5q47 0 84.5 -21.5
t57.5 -60t20 -86.5q0 -40 -13 -73q-12 -31 -34 -52l12 -8t8.5 -6t6.5 -4t11 -4l-16 -32zM561 400zM566 254l-14 -36h86l-13 36h-59zM566 254zM275 273q1 -7 -0.5 -34.5t0 -53t8 -53t26 -45t50.5 -18.5l483 2l108 -108v119v0v72v304q1 26 0.5 39.5t-3.5 25.5t-6 16t-14 7.5
t-19.5 3.5h-29.5h-10h-23l1 -39v-180q-1 -14 -5.5 -24.5t-14.5 -16.5t-19 -10t-24.5 -5.5t-24.5 -2t-26 0t-22 0.5l44 -135h-98l-14 44h-93l-15 -44h-96l47 135h-210z"/>
            <glyph
                glyph-name="dialog"
                unicode="&#xe6cb;"
                d="M902 790h-773q-24 0 -38 -5t-19.5 -16.5t-7 -21t-1.5 -28.5v-497q0 -31 14.5 -39.5t51.5 -8.5h154q0 -2 0.5 -6t-1.5 -19.5t-7 -34.5t-17.5 -51.5t-30.5 -70.5q68 -4 138 18q42 17 77.5 40.5t56 44.5t35.5 40t20.5 29t5.5 11h333q34 -2 51.5 8.5t17.5 47.5v485
q0 42 -11.5 58t-57.5 16h9zM891 246h-373q1 -3 0 -10t-14 -33t-40 -57q-48 -44 -85 -67t-51 -24l-13 -2q22 46 31 98q4 27 3.5 48.5t-2.5 34.5l-2 13h-48h-1l-163 -1v470h758v-470zM915 241zM241 499h325v-36h-325v36zM241 499zM242 391h396v-37h-396v37zM242 391zM299 609
h446v-37h-503v37h57zM242 625z"/>
            <glyph
                glyph-name="yingyongshezhi"
                unicode="&#xe6cc;"
                d="M472 -57q-28 0 -48 20.5t-20 48.5v63l-5 1q-11 4 -34 14l-4 2l-3 -3l-40 -41q-20 -20 -49 -20t-49 20l-54 53q-20 20 -20 49.5t20 48.5l44 45l-1 4q-11 23 -14 34l-2 4l-62 -1q-29 0 -49 20t-20 49v77q0 28 20 48t49 20h62l2 5q3 11 13 33l3 5l-45 43q-20 20 -20 49
t20 49l54 54q20 19 49 19t49 -19l44 -45l5 2q22 10 33 14l5 2l-1 62q0 29 20 49t48 20h77q29 0 49 -20t20 -49v-62l5 -2q11 -4 33 -14l5 -2l43 45q19 19 48.5 19t49.5 -19l53 -54q20 -20 20 -49t-20 -49l-44 -44l2 -5q10 -22 14 -33l1 -5l63 1q30 0 50 -21q19 -20 19 -47
v-77q0 -29 -20.5 -49t-48.5 -20h-63l-1 -5q-4 -11 -14 -33l-2 -5l44 -43q20 -19 20 -48.5t-20 -49.5l-53 -53q-20 -20 -49.5 -20t-48.5 20l-45 44l-4 -2q-23 -10 -34 -14l-4 -1l1 -63q0 -28 -20 -48.5t-49 -20.5h-77zM393 147q6 -4 18 -8q6 -3 9 -4v0v0q20 -7 33 -25t13 -40
v-65h90v65q0 22 12.5 40t32.5 25v0l28 12q14 6 29 6q29 0 49 -20l46 -46l63 63l-46 46q-15 15 -19 37t5 41q4 6 8 18v0q2 6 4 9v0q7 21 25 33.5t40 12.5h65v90h-65q-22 0 -40 13t-25 33v0l-12 27q-9 20 -5 41.5t19 36.5l46 46l-63 63l-46 -46q-20 -20 -49 -20q-16 0 -29 6
q-6 4 -19 9q-5 2 -8 3v0v0q-21 7 -33.5 25.5t-12.5 40.5v64h-90v-64q0 -22 -13 -40.5t-33 -25.5v0l-27 -11q-14 -7 -29 -7q-29 0 -49 20l-46 46l-63 -63l45 -46q16 -15 20 -37t-5 -41q-4 -6 -9 -18v-1q-2 -5 -3 -8v0q-7 -20 -25.5 -33t-40.5 -13h-64v-89h64q22 0 40.5 -12.5
t25.5 -32.5v0l11 -27q9 -20 5.5 -41.5t-19.5 -37.5l-45 -45l63 -64l46 46q19 20 49 20q15 0 29 -7v0v0zM511 207q-76 0 -130 54t-54 130t54 130t130 54q26 0 52 -8q12 -4 18.5 -15t2.5 -24q-7 -22 -30 -22q-4 0 -9 1q-15 6 -34 6q-50 0 -85.5 -35.5t-35.5 -85.5t35.5 -85
t85.5 -35t85 35t35 85q0 8 -2 23v4v0q-3 13 3.5 24t19.5 14q3 1 6 1q11 0 20 -7t12 -18q5 -18 5 -41q0 -76 -54 -130.5t-130 -54.5v0zM511 207z"/>
            <glyph
                glyph-name="yingyongfenxi"
                unicode="&#xe6cd;"
                d="M953 107q0 2 -1 4v607q1 4 1 7q0 16 -12 27q-12 12 -29 12h-792q-17 0 -28 -11q-13 -12 -13 -29q0 -2 2 -618v0q0 -16 11.5 -27.5t27.5 -11.5q2 0 4 1q21 1 32 20l226 407l137 -212q5 -10 15 -16l2 -2q15 -7 30.5 -2.5t23.5 18.5l69 106l198 -255l-579 -1q-40 0 -40 -30
q0 -15 11 -24t29 -9h626q4 -1 9 -1q14 0 25 9t14 23q1 4 1 8v0v0v0zM657 446q-24 0 -36 -21l-66 -96l-140 212q-7 14 -22.5 19.5t-30.5 -1.5l-4 -2l-1 -1v-1t-1 -1q-9 -6 -12 -11l-205 -366v523h755v-540l-202 265q-11 21 -35 21v0zM657 459z"/>
            <glyph
                glyph-name="bianji"
                unicode="&#xe6cf;"
                d="M313 362l-120 -241q-8 -21 5.5 -34.5t33.5 -4.5l242 119q18 4 28 14l430 430q16 16 16 39t-16 39l-98 97q-16 17 -39 17t-39 -17l-429 -429q-11 -11 -14 -29v0zM776 762q8 8 19.5 8t19.5 -8l58 -59q8 -8 8 -19.5t-8 -19.5l-58 -58l-96 99zM677 664l99 -97l-313 -313
l-18 19l1 -1l-61 61l-19 19zM415 225l-150 -90q-10 -5 -17 2.5t-2 16.5l90 149zM893 503v-444q0 -22 -18.5 -39t-42.5 -17h-662q-23 0 -39 16.5t-16 38.5v663q0 23 16.5 41.5t39.5 18.5h444v55h-444q-46 0 -79 -34.5t-33 -80.5v-663q0 -45 32.5 -77.5t78.5 -32.5h662
q47 0 82 33t35 78v444h-56zM893 503z"/>
            <glyph glyph-name="danxingwenzi" unicode="&#xe6d0;" d="M205 343h208l47 -125h78l-186 476h-87l-186 -481h78zM291 586q9 26 13 43h5q0 -2 13 -34l4 -9q0 -2 7.5 -21t25.5 -66.5t36 -98.5h-173q69 176 69 186v0zM291 586zM79 153h867v-61h-867v61zM79 153z"/>
            <glyph
                glyph-name="danxuan"
                unicode="&#xe6d1;"
                d="M507 814q-89 0 -170.5 -35t-140.5 -94t-93.5 -140t-34.5 -170t34.5 -170.5t93.5 -140.5t140.5 -93.5t170.5 -34.5t170 34.5t140 93.5t94 140.5t35 170.5t-35 170t-94 140t-140 94t-170 35v0zM507 -20q-108 0 -199 52.5t-143.5 143.5t-52.5 199t52.5 199t143.5 143.5
t199 52.5t199 -52.5t143.5 -143.5t52.5 -199t-52.5 -199t-143.5 -143.5t-199 -52.5v0zM507 -20zM287 375q0 -44 17 -84.5t47.5 -71t71 -47.5t84.5 -17t84 17t71 47.5t48 71t17 84.5t-17 84t-48 71t-71 48t-84 17t-84.5 -17t-71 -48t-47.5 -71t-17 -84v0zM287 375z"/>
            <glyph
                glyph-name="duoxingwenzi"
                unicode="&#xe6d2;"
                d="M196 429h212l49 -128h79l-190 486h-88l-190 -490h79l49 132v0zM284 677q9 26 13 44h5q0 -2 13 -36l5 -8q0 -2 7.5 -21.5t25.5 -68t37 -100.5h-176q70 180 70 190v0zM284 677zM545 602h406v-62h-406v62zM545 602zM68 235h883v-62h-883v62zM68 235zM545 416h406v-62h-406
v62zM545 416zM68 54h883v-62h-883v62zM68 54zM545 783h406v-62h-406v62zM545 783z"/>
            <glyph
                glyph-name="duoxuan"
                unicode="&#xe6d3;"
                d="M699 534l-229 -241l-106 110q-9 9 -21.5 9t-22 -9.5t-9.5 -22t10 -21.5l127 -132q4 -5 9 -5h4q2 0 6.5 -2t6.5 -2q9 0 14 4q4 0 4 5q4 0 4 4v0v0l255 264q10 10 10 22t-10 22q-34 14 -52 -5v0zM699 534zM866 829h-704q-36 0 -62 -26t-26 -62v-703q0 -37 26 -62.5
t62 -25.5h704q36 0 61.5 25.5t25.5 62.5v703q0 36 -25.5 62t-61.5 26v0zM909 38q0 -20 -12 -32t-31 -12h-704q-19 0 -31.5 12t-12.5 32v703q0 20 12.5 32t31.5 12h704q19 0 31 -12t12 -32v-703v0zM909 38z"/>
            <glyph
                glyph-name="fudianshu"
                unicode="&#xe6d4;"
                d="M253 550q0 27 -31 27h-48l-17 -49h26q6 0 7 -2t1 -6v-284h-26l-13 -48h140v48h-39v314zM253 550zM449 577q-37 0 -64 -18t-41 -48.5t-20 -62.5t-6 -68q0 -35 5.5 -65.5t19 -61.5t40.5 -49.5t66 -20.5q38 0 65 18t40.5 48.5t19.5 62.5t6 68q0 33 -6 64.5t-19.5 62.5
t-41 50.5t-64.5 19.5v0zM449 231q-17 0 -29.5 7.5t-19.5 21.5t-12 27t-6.5 33.5t-2 31.5t-0.5 28q0 148 70 148t70 -148q0 -3 -1.5 -21t-3 -27.5t-4.5 -26.5t-7.5 -27.5t-11.5 -22t-17.5 -17.5t-24.5 -7v0zM449 231zM742 577q-38 0 -65 -18t-40.5 -48.5t-19.5 -62.5t-6 -68
q0 -35 5.5 -65.5t18.5 -61.5t40.5 -49.5t66.5 -20.5q37 0 64 18t41 48.5t20 62.5t6 68q-11 197 -131 197v0zM742 231q-15 0 -26 5.5t-18 16.5t-11.5 21.5t-7 27t-4 27.5t-2.5 28t-1 23q0 148 70 148t70 -148q-1 -3 -2 -21t-2.5 -27.5t-4.5 -26.5t-7.5 -27.5t-11.5 -22
t-18 -17.5t-24 -7v0zM742 231zM860 817h-699q-36 0 -61.5 -26t-25.5 -62v-698q0 -36 25.5 -62t61.5 -26h699q36 0 61.5 26t25.5 62v698q0 36 -25.5 62t-61.5 26v0zM903 31q0 -20 -12 -32t-31 -12h-699q-20 0 -32 12t-12 32v698q0 20 12 32t32 12h699q19 0 31 -12t12 -32
v-698zM903 31z"/>
            <glyph
                glyph-name="fujian"
                unicode="&#xe6d5;"
                d="M725 817q64 -38 82.5 -110t-19.5 -136l-229 -386q-25 -43 -73 -55t-90.5 13t-55 73t12.5 90l183 310q6 10 18 13.5t22 -2.5q11 -7 14.5 -19t-3.5 -22l-182 -309q-13 -22 -7 -46t27.5 -37t45.5 -6.5t37 27.5l229 386q25 43 12.5 91t-55.5 73t-91 12.5t-73 -55.5l-274 -464
q-38 -63 -19 -135.5t82.5 -110t136 -19t110.5 82.5l228 386q6 11 18.5 14t22.5 -3q11 -6 14 -18.5t-3 -22.5l-229 -386q-50 -86 -146.5 -110.5t-181.5 26.5q-86 50 -110.5 146.5t26.5 181.5l274 464q37 64 109 82.5t137 -19.5v0v0zM725 817z"/>
            <glyph
                glyph-name="qunzu"
                unicode="&#xe6d7;"
                d="M621 435q33 26 52.5 64t19.5 82q0 77 -54.5 131t-131.5 54t-131 -54t-54 -131q0 -44 19 -82t52 -64q-87 -35 -141 -113t-54 -174v-62q0 -13 9 -22t22 -9h556q13 0 22 9t9 22v62q0 96 -54 174t-141 113v0zM507 705q51 0 87.5 -36.5t36.5 -87.5t-36.5 -87.5t-87.5 -36.5
t-87.5 36.5t-36.5 87.5t36.5 87.5t87.5 36.5v0zM754 117h-494v31q0 102 72.5 174.5t174.5 72.5t174.5 -72.5t72.5 -174.5v-31zM754 117zM300 424l1 6q1 3 1 4v7v1.5v2t-0.5 1l-0.5 0.5l-2 4q-2 5 -5 8v0v0q-5 5 -10 7q-25 11 -40 34t-15 51q0 32 19.5 57.5t51.5 32.5
q12 3 19 14t4 23.5t-14 19t-24 3.5q-52 -12 -85 -54t-33 -96q0 -60 40 -104q-61 -31 -97 -90t-36 -129v-48q0 -13 9 -22t22 -9t22 9t9 22v48q0 64 39 114t101 65q17 3 24 18v0v0zM300 424zM807 446q40 44 40 104q0 52 -32 94t-82 55q-13 4 -24 -2.5t-14.5 -19t3 -23.5
t19.5 -14q30 -9 49 -34t19 -56q0 -28 -15 -51t-40 -34q-5 -2 -10 -7v0v0q-3 -3 -5 -8q-2 -3 -2 -4l-0.5 -0.5t-0.5 -1v-2v-1.5v-7q0 -1 1 -4l1 -6q7 -15 24 -18q62 -15 101 -65t39 -114v-48q0 -13 9 -22t22 -9t22 9t9 22v48q0 70 -36 129t-97 90v0zM807 446z"/>
            <glyph glyph-name="renling" unicode="&#xe6d8;" d="M777 528h101v-423h-732v423h93v84h-177v-591h901v591h-186v-84zM777 528zM296 455l-65 -74l293 -261l273 264l-71 71l-152 -150v507h-101v-512zM296 455z"/>
            <glyph
                glyph-name="shijianbiao"
                unicode="&#xe6d9;"
                d="M824 699q-63 63 -144 96.5t-170.5 33.5t-170.5 -33.5t-144 -96.5t-96.5 -144.5t-33.5 -170.5t33.5 -170t96.5 -144.5t144 -97t170.5 -33.5t170.5 34t144 97q86 85 116 199.5t0 229.5t-116 200v0v0v0zM783 111q-55 -55 -125.5 -84.5t-148 -29.5t-148 29.5t-125.5 84
t-84.5 125.5t-29 148.5t29.5 148t84 125.5t125.5 84t148 29t148 -29t125.5 -84q74 -74 100.5 -174t0 -199.5t-100.5 -173.5v0v0v0zM702 275l-154 89v243q0 15 -11 26t-26 11t-26 -11t-11 -26v-260q0 -15 28 -32q2 -3 17 -11l153 -93q13 -8 26 -4t21 18q7 13 2 27.5t-19 22.5
v0v0v0zM702 275z"/>
            <glyph
                glyph-name="wenben"
                unicode="&#xe6da;"
                d="M153 388q0 342 -1 405q0 24 8 34t31 10q331 -1 641 0q22 0 31.5 -10.5t9.5 -32.5v-674q0 -10 -1 -14q-4 -24 -43.5 -66.5t-87 -76t-70.5 -33.5q-63 -1 -233 -0.5t-234 -0.5q-29 0 -40 12.5t-10 41.5v405h-1v0zM194 387v-354q0 -45 9.5 -54t55.5 -9q191 -1 278 0h44
q25 -1 35 -1t22.5 3.5t15 6t6.5 14.5t3.5 22t-0.5 35v45q0 51 9 59.5t59 4.5h23.5t23.5 -1q30 -2 43 11t12 44q-2 280 0 528q1 32 -12.5 44.5t-45.5 11.5q-270 -2 -523 0q-32 1 -45.5 -12t-12.5 -45q1 -46 0 -353v0zM704 52q1 -8 0 -14.5t0 -15t6 -13.5q8 -9 21 4
q50 49 79 79q15 16 -6 25q-43 16 -72 -2.5t-28 -62.5v0v0zM704 52zM512 194h-174q-10 0 -15 0.5t-11 5t-6 13.5t5.5 14t10.5 5.5t15 0.5q188 1 353 0q10 0 15.5 -0.5t11 -5.5t5.5 -14q0 -20 -31 -21q-33 -1 -94 0.5t-85 1.5v0v0zM512 194zM509 533h-169q-9 0 -12.5 0.5
t-10.5 2t-9.5 6t-1.5 13.5q1 12 9.5 14.5t23.5 2.5q197 1 348 0h12.5t10.5 -2t9.5 -6.5t1.5 -12.5q0 -9 -6.5 -13t-11 -4.5t-15.5 -0.5h-178h-1zM509 533zM514 460h174q11 0 15.5 -0.5t11 -4.5t6.5 -13q1 -10 -5.5 -15.5t-11.5 -6t-17 -0.5h-348q-10 0 -15 0.5t-11.5 5
t-6.5 12.5q-1 14 7.5 18t23.5 4h3h87h87v0zM514 460zM467 307h-132q-9 0 -14.5 1t-10.5 6t-4 15q1 17 29 17h258q9 0 15 -1t10.5 -6t4.5 -15q-2 -17 -30 -17h-126v0v0zM467 307z"/>
            <glyph
                glyph-name="xiaoshu"
                unicode="&#xe6db;"
                d="M299 609q-40 0 -70 -20t-45.5 -54t-22.5 -71t-7 -77q0 -39 6.5 -74t21.5 -69t45 -55t72 -21q41 0 70.5 20.5t45 54t23 69.5t7.5 75q0 38 -6.5 73.5t-21.5 71t-45.5 56.5t-72.5 21v0zM299 223q-16 0 -28.5 6t-20 18t-12.5 24t-8 30.5t-4.5 30.5t-2.5 30t-1 25
q0 163 77 163q16 0 28.5 -6.5t20.5 -16t14 -25t8.5 -28t4 -32t1.5 -29.5v-26q0 -18 -0.5 -29t-2 -32.5t-6.5 -36.5t-13 -31t-22 -25t-33 -10v0zM299 223zM517 250q-19 0 -32 -13.5t-13 -31.5q0 -20 13.5 -33t31.5 -13q21 0 33.5 12.5t12.5 33.5q0 17 -14.5 31t-31.5 14v0z
M517 250zM726 437h-50v109q0 3 3 6t6 3h164v50h-209q-10 0 -18.5 -8.5t-8.5 -19.5v-163q0 -11 8.5 -21.5t18.5 -10.5h95q59 0 59 -82q0 -31 -18.5 -52t-49.5 -21q-39 0 -56 20t-21 62l-64 -18q13 -118 132 -118q60 0 100.5 35t40.5 106q0 55 -39 89t-93 34v0zM726 437z
M872 836h-727q-38 0 -64.5 -26.5t-26.5 -63.5v-728q0 -37 26.5 -63.5t64.5 -26.5h727q37 0 64 26.5t27 63.5v728q0 37 -27 63.5t-64 26.5v0zM917 18q0 -20 -12.5 -32.5t-32.5 -12.5h-727q-21 0 -33.5 12.5t-12.5 32.5v728q0 20 12.5 32.5t33.5 12.5h727q20 0 32.5 -12.5
t12.5 -32.5v-728zM917 18z"/>
            <glyph glyph-name="xinzeng" unicode="&#xe6dc;" d="M967 458h-377v376h-149v-376h-380v-150h380v-379h149v379h377v150zM967 458z"/>
            <glyph
                glyph-name="tupian"
                unicode="&#xe6dd;"
                d="M274 446q36 0 62.5 27t26.5 63t-26.5 62.5t-62.5 26.5t-63 -26.5t-27 -62.5t27 -63t63 -27v0zM274 446zM838 357l-193 192l-237 -237l-76 76l-148 -148v-89h654v206zM838 357zM914 728h-806q-17 0 -31 -14t-14 -30v-596q0 -17 14 -31t31 -14h806q17 0 31 14t14 31v596
q0 19 -13.5 31.5t-31.5 12.5v0zM914 93h-806v591h806v-591v0zM914 93z"/>
            <glyph
                glyph-name="xialakuang"
                unicode="&#xe6de;"
                d="M824 559h-623l311 -346zM824 559zM853 822h-681q-41 0 -69.5 -29t-28.5 -69v-681q0 -41 28.5 -69.5t69.5 -28.5h681q40 0 69 28.5t29 69.5v681q0 40 -29 69t-69 29v0zM902 43q0 -22 -13.5 -35.5t-35.5 -13.5h-681q-22 0 -35.5 13.5t-13.5 35.5v681q0 22 13.5 35.5
t35.5 13.5h681q22 0 35.5 -13.5t13.5 -35.5v-681zM902 43z"/>
            <glyph
                glyph-name="zuzhijiagou"
                unicode="&#xe6df;"
                d="M836 312h-103l-103 177q18 10 29.5 29.5t11.5 40.5v165q0 34 -24 58t-58 24h-165q-34 0 -58 -24t-24 -58v-165q0 -42 41 -70l-103 -177h-103q-34 0 -58 -24t-24 -58v-165q0 -34 24 -58t58 -24h165q34 0 58 24t24 58v54h165v-54q0 -34 24 -58t58 -24h165q34 0 58 24t24 58
v165q0 34 -24 58t-58 24v0zM424 181v49q0 31 -21.5 55t-52.5 27l95 165h119l95 -165q-32 -3 -53 -26t-21 -56v-49h-161zM424 181z"/>
            <glyph
                glyph-name="tianjia"
                unicode="&#xe6e0;"
                d="M902 171h-140v-149q0 -9 -6 -15.5t-15 -6.5h-30q-9 0 -15 6.5t-6 15.5v149h-140q-9 0 -15.5 6.5t-6.5 15.5v30q0 9 6.5 15.5t15.5 6.5h140v149q0 9 6 15.5t15 6.5h30q9 0 15 -6.5t6 -15.5v-149h140q9 0 15.5 -6.5t6.5 -15.5v-30q0 -9 -6.5 -15.5t-15.5 -6.5v0v0v0z
M331 796h430q72 0 122.5 -52t50.5 -125v-240q0 -10 -5.5 -16t-10.5 -8l-5 -1v0h-17q-8 0 -13 6t-6 13l-1 6v75h-746v-277q1 -5 3.5 -12.5t12 -27t21.5 -34t33 -27t44 -12.5h323q3 0 6.5 -0.5t9.5 -5.5t6 -14v-21q0 -20 -21 -23h-324q-71 0 -121.5 52t-50.5 125v620zM129 739
v-228h751v109q0 30 -10.5 53t-25.5 35t-30 19.5t-26 9.5l-10 2h-550h-99z"/>
            <glyph
                glyph-name="guolv"
                unicode="&#xe6e2;"
                d="M596 -77q-11 0 -20 7l-179 142q-12 10 -12 25v302q0 1 -1 2l-284 284q-1 2 -3 4q-24 26 -24 60q0 36 25 61.5t61 25.5h704q35 0 60.5 -25.5t25.5 -61.5q0 -34 -24 -59q-1 -2 -2 -3l-295 -295q-1 -1 -1 -2v-435q0 -20 -18 -29q-6 -3 -13 -3v0v0zM448 112l116 -92v370
q0 27 20 47l293 293q1 2 3 3q6 7 6 16q0 10 -7 17t-16 7h-704q-10 0 -16.5 -7t-6.5 -17q0 -9 6 -16q2 -1 4 -5l283 -282q19 -20 19 -47v-287v0zM448 112z"/>
            <glyph glyph-name="daohangqianzhui" unicode="&#xe6e4;" d="M277 393q0 -97 68.5 -166t166 -69t166.5 69t69 166t-69 166t-166.5 69t-166 -69t-68.5 -166v0zM277 393z"/>
            <glyph
                glyph-name="iconquanzi"
                unicode="&#xe6e8;"
                d="M810.5 625q46.5 -79 46.5 -173t-46.5 -173.5t-125.5 -126t-173 -46.5t-173.5 46.5t-126 126t-46.5 173.5t46.5 173t126 125.5t173.5 46.5t173 -46.5t125.5 -125.5zM634.5 663.5q-56.5 32.5 -123 32.5t-122.5 -32.5t-89 -89t-33 -123t33 -122.5t89 -89t122.5 -33t123 33
t89 89t32.5 122.5t-32.5 123t-89 89z"/>
            <glyph
                glyph-name="iconshitu"
                unicode="&#xe6e9;"
                d="M755 739v-76h-61v76q0 6 -4.5 10.5t-10.5 4.5h-516q-7 0 -11.5 -4.5t-4.5 -10.5v-517q0 -6 4.5 -10.5t11.5 -4.5h76v-61h-76q-32 0 -54 22.5t-22 53.5v517q0 31 22 53.5t54 22.5h516q31 0 53.5 -22.5t22.5 -53.5zM937 557v-517q0 -31 -22 -53.5t-54 -22.5h-516
q-31 0 -53.5 22.5t-22.5 53.5v517q0 31 22.5 53.5t53.5 22.5h516q32 0 54 -22.5t22 -53.5zM877 40v517q0 6 -4.5 10.5t-11.5 4.5h-516q-6 0 -10.5 -4.5t-4.5 -10.5v-517q0 -6 4.5 -10.5t10.5 -4.5h516q7 0 11.5 4.5t4.5 10.5z"/>
            <glyph
                glyph-name="cangku"
                unicode="&#xe6ea;"
                d="M960 346v-171q0 -15 -8 -28t-21 -19l-185 -93q-10 -5 -23.5 -5t-23.5 5l-185 93q-1 1 -2 1t-3 -1l-185 -93q-10 -5 -23.5 -5t-23.5 5l-184 93q-14 6 -22 19t-8 28v171q0 16 9 29t23 20l179 76v165q0 16 9 29t23 20l185 79q9 4 20.5 4t20.5 -4l185 -79q14 -7 23 -20t9 -29
v-165l179 -76q15 -7 23.5 -20t8.5 -29zM301 283l166 71l-166 71l-167 -71zM327 96l158 79v129l-158 -67v-141zM512 560l181 78l-181 77l-182 -77zM538 403l158 68v110l-158 -68v-110zM723 283l166 71l-166 71l-167 -71zM749 96l158 79v129l-158 -67v-141z"/>
            <glyph
                glyph-name="chengyuan"
                unicode="&#xe6eb;"
                d="M832 185q0 -55 -33.5 -86.5t-88.5 -31.5h-396q-55 0 -88.5 31.5t-33.5 86.5q0 24 1.5 47t6.5 49.5t12.5 49t19.5 44t28 37t39 24.5t50 9q5 0 20 -10t33.5 -22t49 -21.5t60.5 -9.5t60.5 9.5t49.5 21.5q19 13 34 22q14 10 19 10q27 0 50 -9t39 -24.5t28 -37t19.5 -44
t12.5 -49t6.5 -49.5t1.5 -47zM635 713.5q51 -51.5 51 -123.5t-51 -123t-123 -51t-123 51t-51 123t51 123.5t123 51.5t123 -51.5z"/>
            <glyph
                glyph-name="daohangquanzi"
                unicode="&#xe6ec;"
                d="M888.5 577q58.5 -100 58.5 -219t-58.5 -219t-158.5 -158.5t-218.5 -58.5t-218.5 58.5t-158.5 158.5t-58.5 219t58.5 219t158.5 158.5t218.5 58.5t218.5 -58.5t158.5 -158.5zM666.5 625.5q-70.5 41.5 -154.5 41.5t-155 -41.5t-112.5 -112.5t-41.5 -155t41.5 -155
t112.5 -112.5t155 -41.5t154.5 41.5t112 112.5t41.5 155t-41.5 155t-112 112.5zM614.5 460.5q42.5 -42.5 42.5 -102.5t-42.5 -102.5t-103 -42.5t-103 42.5t-42.5 102.5t42.5 102.5t103 42.5t103 -42.5z"/>
            <glyph
                glyph-name="diliweizhi"
                unicode="&#xe6ed;"
                d="M771 547q0 -61 -19 -100l-202 -429q-9 -19 -26.5 -29.5t-37.5 -10.5t-37.5 10.5t-25.5 29.5l-203 429q-18 39 -18 100q0 117 83.5 200.5t201 83.5t201 -83.5t83.5 -200.5zM586.5 446.5q41.5 41.5 41.5 100.5t-41.5 100.5t-100.5 41.5t-100.5 -41.5t-41.5 -100.5
t41.5 -100.5t100.5 -41.5t100.5 41.5z"/>
            <glyph
                glyph-name="jifangsheshi"
                unicode="&#xe6ee;"
                d="M961 307v-188q0 -39 -27.5 -66.5t-66.5 -27.5h-714q-38 0 -66 27.5t-28 66.5v188q0 14 10 44l115 355q10 31 37 50.5t60 19.5h459q32 0 59 -19.5t37 -50.5l116 -355q9 -30 9 -44zM886 119v188q0 7 -5.5 12.5t-13.5 5.5h-714q-7 0 -12.5 -5.5t-5.5 -12.5v-188
q0 -8 5.5 -13.5t12.5 -5.5h714q8 0 13.5 5.5t5.5 13.5zM164 400h692l-92 283q-2 8 -9 13t-15 5h-459q-9 0 -16 -5t-9 -13zM656 246q14 -14 14 -33.5t-14 -33t-33.5 -13.5t-33 13.5t-13.5 33t14 33.5t33 14t33 -14zM806 246q14 -14 14 -33.5t-13.5 -33t-33 -13.5t-33.5 13.5
t-14 33t14 33.5t33 14t33 -14z"/>
            <glyph
                glyph-name="jichuziyuan"
                unicode="&#xe6ef;"
                d="M950 620v-407q0 -19 -9.5 -35t-25.5 -25l-374 -204q-15 -8 -32.5 -8t-32.5 8l-373 204q-17 9 -26.5 25t-9.5 35v407q0 21 12.5 38.5t32.5 25.5l373 136q12 4 23.5 4t23.5 -4l374 -136q20 -8 32 -25.5t12 -38.5zM509 486l370 135l-370 135l-371 -135zM543 27l339 186v337
l-339 -124v-399v0z"/>
            <glyph
                glyph-name="moxing"
                unicode="&#xe6f0;"
                d="M941 243v-154q0 -19 -13.5 -32.5t-32.5 -13.5h-154q-19 0 -32.5 13.5t-13.5 32.5v154q0 19 13.5 32.5t32.5 13.5h46v92h-246v-92h46q19 0 32.5 -13.5t13.5 -32.5v-154q0 -19 -13.5 -32.5t-32.5 -13.5h-154q-19 0 -32.5 13.5t-13.5 32.5v154q0 19 13.5 32.5t32.5 13.5h46
v92h-246v-92h47q19 0 32.5 -13.5t13.5 -32.5v-154q0 -19 -13.5 -32.5t-32.5 -13.5h-154q-19 0 -32.5 13.5t-13.5 32.5v154q0 19 13.5 32.5t32.5 13.5h46v92q0 25 18 43.5t43 18.5h246v92h-46q-19 0 -32.5 13.5t-13.5 32.5v154q0 19 13.5 32.5t32.5 13.5h154q19 0 32.5 -13.5
t13.5 -32.5v-154q0 -19 -13.5 -32.5t-32.5 -13.5h-46v-92h246q25 0 43 -18.5t18 -43.5v-92h47q19 0 32.5 -13.5t13.5 -32.5z"/>
            <glyph
                glyph-name="peizhisousuo"
                unicode="&#xe6f1;"
                d="M947 772v-136q0 -14 -10 -24t-23 -10h-815q-14 0 -24 10t-10 24v136q0 13 10 23t24 10h815q13 0 23 -10t10 -23zM914 534v-509q0 -14 -10.5 -24t-23.5 -10h-747q-14 0 -24 10t-10 24v509q0 14 10 24t24 10h747q13 0 23.5 -10t10.5 -24zM598 408q10 10 10 24t-10 24
t-24 10h-136q-13 0 -23 -10t-10 -24t10 -24t23 -10h136q14 0 24 10z"/>
            <glyph
                glyph-name="peizhi"
                unicode="&#xe6f2;"
                d="M943 282v-272q0 -14 -10.5 -25t-25.5 -11h-794q-15 0 -25.5 11t-10.5 25v272q0 35 14 70l134 311q6 14 21 23.5t30 9.5h469q15 0 29.5 -9.5t20.5 -23.5l134 -311q14 -35 14 -70zM654 299h178q0 2 -1 5t-1 4l-120 280h-399l-120 -280q-1 -1 -1.5 -4.5t-1.5 -4.5h178
l54 -108h181z"/>
            <glyph
                glyph-name="shujudongtai"
                unicode="&#xe6f3;"
                d="M957 88v-56h-888v667h55v-611h833zM902 629v-188q0 -9 -8.5 -13t-15.5 3l-53 53l-274 -275q-5 -4 -10.5 -4t-9.5 4l-101 101l-181 -180l-83 83l254 254q4 4 9.5 4t10.5 -4l101 -101l201 201l-52 53q-7 6 -3.5 14.5t12.5 8.5h189q6 0 10 -3.5t4 -10.5z"/>
            <glyph
                glyph-name="yewuyingyong"
                unicode="&#xe6f4;"
                d="M948 701v-188h-878v188h878zM948 450v-188h-878v188h878zM948 199v-188h-878v188h878zM132 576h502v62h-502v-62zM132 325h502v62h-502v-62zM132 74h502v62h-502v-62zM887.5 573.5q13.5 13.5 13.5 33.5t-13.5 33.5t-33 13.5t-33.5 -13.5t-14 -33.5t14 -33.5t33.5 -13.5
t33 13.5zM887.5 322.5q13.5 13.5 13.5 33.5t-13.5 33.5t-33 13.5t-33.5 -13.5t-14 -33.5t14 -33.5t33.5 -13.5t33 13.5zM887.5 71.5q13.5 13.5 13.5 33.5t-13.5 33.5t-33 13.5t-33.5 -13.5t-14 -33.5t14 -33.5t33.5 -13.5t33 13.5z"/>
            <glyph
                glyph-name="yunxingziyuan"
                unicode="&#xe6f5;"
                d="M952 323v-332q0 -19 -14 -33t-34 -14h-473q-19 0 -33 14t-14 33v79h-268q-20 0 -33.5 14t-13.5 34v662q0 20 13.5 33.5t33.5 13.5h536q20 0 33.5 -13.5t13.5 -33.5v-162q11 -6 18 -13l201 -201q14 -14 24 -38t10 -43zM573 717v31q0 7 -4.5 11.5t-11.5 4.5h-346
q-7 0 -11.5 -4.5t-4.5 -11.5v-31q0 -6 4.5 -11t11.5 -5h346q7 0 11.5 5t4.5 11zM447 7h442v316h-205q-20 0 -34 13.5t-14 33.5v205h-189v-568v0zM699 386h148l-148 147v-147z"/>
            <glyph
                glyph-name="quanzi"
                unicode="&#xe6f7;"
                d="M892 596q59 -101 59 -221t-59 -221t-160 -160t-221 -59t-221 59t-160 160t-59 221t59 221.5t160 160.5t221 59t221 -59t160 -161v0zM702 705q-87 51 -191 51t-191.5 -51t-138.5 -138.5t-51 -191t51 -191t138.5 -138.5t191.5 -51t191.5 51t138.5 138.5t51 191t-51 191
t-139 138.5v0zM615 479q43 -43 43 -103.5t-43 -103.5t-104 -43t-104 43t-43 103.5t43 103.5t104 43t104 -43v0zM615 479z"/>
            <glyph
                glyph-name="yibiaopan"
                unicode="&#xe6f8;"
                d="M483 807h-54v-81q-147 -16 -247.5 -127.5t-100.5 -260.5q0 -106 52 -195.5t141.5 -141.5t194.5 -52q117 0 213.5 63.5t142.5 166.5l60 -16q54 88 54 200q0 90 -37.5 172.5t-100 142t-146 94.5t-172.5 35v0zM469 3q-91 0 -168 44.5t-122 122t-45 168.5q0 125 85.5 221
t209.5 114v-361l341 -119q-34 -84 -119.5 -137t-181.5 -53v0zM846 228l-363 123v402q103 1 195 -52t148 -144t56 -194q0 -72 -36 -135v0zM846 228z"/>
            <glyph
                glyph-name="mbangzhu"
                unicode="&#xe6f9;"
                d="M464 112q0 -19 13.5 -32.5t32.5 -13.5t33 13.5t14 33t-14 33t-33 13.5t-32.5 -13.5t-13.5 -33.5v0v0zM464 112zM510 -57q-88 0 -168 34t-138 92t-92 138t-34 168q0 118 58 217.5t157.5 157.5t216.5 58q88 0 168 -34.5t138 -92.5t92.5 -138t34.5 -168q0 -117 -58 -216.5
t-157.5 -157.5t-217.5 -58v0v0zM510 746q-100 0 -185.5 -50t-135 -135t-49.5 -185.5t49.5 -186t135 -135t186 -49.5t185.5 49.5t135 135t50 186t-50 185.5t-135 135t-186 50v0v0zM510 746zM510 219q-13 0 -22 9t-9 22v52q0 24 13 48.5t25 38t35 37.5q17 16 25.5 25.5
t17 22.5t8.5 23q0 39 -27 66t-66 27t-65.5 -26.5t-26.5 -64.5q0 -13 -9.5 -22t-22 -9t-21.5 9t-9 22q0 63 45 108t109 45t109.5 -45.5t45.5 -109.5q0 -22 -12 -44t-23.5 -35t-33.5 -36q-18 -18 -27.5 -28t-18.5 -25t-9 -27v-52q0 -13 -9 -22t-22 -9v0v0zM510 219z"/>
            <glyph
                glyph-name="jianceqi"
                unicode="&#xe6fa;"
                d="M507 811q-93 0 -177 -36t-145 -97t-97 -145t-36 -177q0 -94 36.5 -178t101.5 -147h633q65 63 101.5 147t36.5 178q0 93 -36 177t-97 145t-145 97t-176 36v0v0zM796 96h-578q-101 110 -101 260q0 106 52.5 195.5t142 142t195 52.5t195.5 -52q90 -53 142 -142.5t52 -195.5
q0 -150 -100 -260v0v0v0zM233 375l-82 15l8 45l82 -15zM772 420l82 15l8 -45l-82 -15zM312 551l-54 64l36 29l53 -64zM701 551l-35 29l54 64l35 -29zM483 713h47v-83h-47v83zM509 354l-140 156l78 -190q-20 -37 1 -72q15 -25 43.5 -31.5t52.5 9.5t31 44t-9 52q-20 31 -57 32
v0v0zM509 354z"/>
            <glyph
                glyph-name="zuocehua"
                unicode="&#xe6fd;"
                d="M511 -59q90 0 171.5 35t140.5 94t94 140.5t35 171t-35 171.5t-94 141t-140.5 94t-171 35t-171.5 -35t-141 -94t-94 -141t-35 -171.5t35 -171t94 -140.5t141 -94t171 -35v0zM371 404l189 213q9 10 20.5 10t20 -9.5t8.5 -23t-8 -23.5l-169 -190l169 -190q8 -10 8 -23.5
t-8.5 -23t-20 -9.5t-20.5 10l-189 213q-8 10 -8 23t8 23v0zM371 404z"/>
            <glyph
                glyph-name="yunbushu"
                unicode="&#xe701;"
                d="M256 306v1l511 -1q59 0 100 41.5t41 100.5q0 54 -36.5 94.5t-89.5 46.5v13q0 89 -63 152t-153 63q-68 0 -127 -44q-40 -29 -64 -72q-27 14 -57 14q-49 0 -87 -42q-24 -27 -32 -63q-42 -16 -69 -52q-31 -42 -31 -94q0 -65 46 -111.5t111 -46.5v0v0zM235 582h1q8 2 9 10
q6 32 30 57t55 25q27 0 49 -15q2 -2 5 -3v0q13 -5 19 8q22 47 66 76.5t93 29.5q71 0 121 -50t50 -121q0 -12 -0.5 -25.5t12.5 -15.5q2 -1 4 -1v0q42 0 72 -30t30 -72q0 -40 -28 -69.5t-68 -31.5v0h-492q-45 3 -76 36.5t-31 79.5q0 38 22 69t57 43v0v0zM235 582zM983 51v154
h-71h-858l1 -204l928 1v49v0zM937 49h-835v108h836v-108h-1zM937 49zM186 124h44v-42h-44v42zM186 124zM275 125h594v-43h-594v43zM275 125z"/>
            <glyph
                glyph-name="shijiantai"
                unicode="&#xe704;"
                d="M575 288v39h-193v-49h193v10zM575 288zM381 471h329v-48h-329v48zM381 471zM237 472h48v-49h-48v49zM237 472zM237 327h48v-49h-48v49zM237 327zM854 432v328h-762v-723h387l-4 -109h134l379 369zM140 711h665v-94h-665v94zM140 568h665v-172l-297 -295v2h-368v465z
M595 -29h-77l3 90l327 309l78 -77l-331 -322v0zM595 -29z"/>
            <glyph
                glyph-name="rili"
                unicode="&#xe707;"
                d="M944 809h-159v40h-78v-39h-395v40h-79v-40h-158v0v-870h870zM153 731h80v-40h79v40h395v-40h78v40h81v-80h-713v80v0zM153 18v554h713l-1 -554h-712v0zM392 496h81v-81h-81v81zM392 336h81v-81h-81v81zM231 336h81v-81h-81v81zM231 178h81v-81h-81v81zM390 178h81v-81
h-81v81zM548 178h81v-81h-81v81zM550 496h81v-81h-81v81zM550 337h81v-81h-81v81zM709 496h81v-81h-81v81zM709 336h81v-81h-81v81z"/>
            <glyph glyph-name="biaoji" unicode="&#xe708;" d="M511 810l142 -282l301 -39l-233 -235l63 -286l-273 157l-274 -157l64 286l-233 235l300 39zM511 810z"/>
            <glyph glyph-name="tianjia1" unicode="&#xe709;" d="M79 824h-9l-1 -885l886 1v887zM872 19h-724l1 725l724 1l2 -727l-3 1v0zM552 583h-81v-160h-161v-81h161v-161h81v161h161v81h-161v160z"/>
            <glyph glyph-name="shanchu" unicode="&#xe70a;" d="M106 835h-8l-1 -829l830 1v831zM850 81h-679l1 679l678 1l2 -681zM550 459h-227v-76h378v76h-151v0z"/>
            <glyph glyph-name="shanchux" unicode="&#xe70d;" d="M938 719l-102 102l-321 -321l-333 331l-100 -100l331 -333l-329 -331l99 -97l332 326l326 -326l102 99l-326 329z"/>
            <glyph
                glyph-name="ziyuanku"
                unicode="&#xe70e;"
                d="M780 388h62l1 155l-110 64v-84l47 -26v-109zM249 487v10l41 23v84l-100 -57l-1 -158h60v98zM410 105v-73v-1l103 -45l103 44v75l-102 -42zM369 658.5q0 -59.5 41.5 -101t100.5 -41.5t101 41.5t42 101t-42 101t-101 41.5t-100.5 -41.5t-41.5 -101zM77 206
q0 -59 41.5 -100.5t100 -41.5t100 41.5t41.5 100.5v0q0 58 -41.5 99.5t-100 41.5t-100 -41.5t-41.5 -99.5v0zM669 203q0 -59 41.5 -100.5t100 -41.5t100 41.5t41.5 100.5t-41.5 100.5t-100 41.5t-100 -41.5t-41.5 -100.5z"/>
            <glyph
                glyph-name="shujutu"
                unicode="&#xe711;"
                d="M779 814l67 -68l-110 -109l-101 90l-215 -222l-119 104l-234 -230l55 -55l181 181l115 -102l222 227l96 -88l164 150l64 -62v184h-185zM66 222h81v-226h-81v226zM197 311h81v-315h-81v315zM333 264h81v-268h-81v268zM470 334h81v-338h-81v338zM606 471h81v-475h-81v475z
M743 356h81v-360h-81v360zM879 516h80v-520h-80v520z"/>
            <glyph glyph-name="duigou" unicode="&#xe712;" d="M870 794l-504 -502l-200 210l-86 -85l286 -295l589 586z"/>
            <glyph
                glyph-name="shuzhuangtu"
                unicode="&#xe713;"
                d="M832 601q0 39 -27.5 67t-66.5 28t-67 -28t-28 -67q0 -33 21.5 -59t53.5 -33q-4 -46 -32 -81q-51 -63 -169 -74q-111 -11 -166 -59v316q31 9 50.5 34t19.5 57q0 39 -28 67t-67 28t-67 -28t-28 -67q0 -32 20 -57.5t50 -33.5v-440q-30 -8 -50 -33.5t-20 -57.5q0 -39 28 -67
t67 -28t67 28t28 67q0 32 -19.5 57.5t-50.5 33.5v46q4 12 11 23q38 57 159 69q137 13 200 90q39 48 42 111q31 9 50 34t19 57zM276 702.5q0 20.5 14.5 35t35 14.5t35 -14.5t14.5 -35t-14.5 -35t-35 -14.5t-35 14.5t-14.5 35zM375 79.5q0 -20.5 -14.5 -35t-35 -14.5t-35 14.5
t-14.5 35t14.5 35t35 14.5t35 -14.5t14.5 -35zM737.5 552q-20.5 0 -35 14.5t-14.5 35t14.5 35t35 14.5t35 -14.5t14.5 -35t-14.5 -35t-35 -14.5z"/>
            <glyph
                glyph-name="zuoye"
                unicode="&#xe719;"
                d="M761 778v-46q9 -15 9 -33q0 -26 -18.5 -44.5t-45 -18.5t-45 18.5t-18.5 44.5q0 18 10 33v46h-86v-46q10 -15 10 -33q0 -26 -19 -44.5t-45 -18.5t-44.5 18.5t-18.5 44.5q0 18 9 33v46h-85v-46q9 -15 9 -33q0 -26 -18.5 -44.5t-45 -18.5t-45 18.5t-18.5 44.5q0 18 10 33v46
h-59v-628l202 -202h409v830h-57zM767 -1h-291q-12 0 -21 6.5t-14.5 17t-8.5 24t-3.5 28.5t-0.5 30t2 28.5t3 24t2.5 17t1.5 5.5q-4 -1 -10.5 -2t-24.5 -4t-35 -4.5t-37.5 0t-35.5 6t-25 15.5t-11 27v369h509v-588v0v0zM722 426h-407v-63h407v63zM722 532h-407v-63h407v63z
M722 320h-407v-64h407v64zM706.5 662q13.5 0 22.5 9.5t9 22.5v88q0 13 -9 22t-22.5 9t-22.5 -9t-9 -22v-88q0 -13 9 -22.5t22.5 -9.5zM319.5 662q13.5 0 22.5 9.5t9 22.5v88q0 13 -9 22t-22.5 9t-22.5 -9t-9 -22v-88q0 -13 9 -22.5t22.5 -9.5zM513 662q13 0 22.5 9.5
t9.5 22.5v88q0 13 -9.5 22t-22.5 9t-22.5 -9t-9.5 -22v-88q0 -13 9.5 -22.5t22.5 -9.5z"/>
            <glyph
                glyph-name="guanlipeizhi"
                unicode="&#xe71b;"
                d="M372 213h463v-58h-463v58zM372 321h463v-58h-463v58zM940 751h-856q-5 0 -8.5 -3.5t-3.5 -8.5v-718q0 -5 3.5 -8.5t8.5 -3.5h856q5 0 8.5 3.5t3.5 8.5v718q0 5 -3.5 8.5t-8.5 3.5zM894 68h-764v507l764 -1v-506zM373 443h462v-59h-462v59zM186 442h92v-58h-92v58z
M186 320h92v-58h-92v58zM186 213h92v-58h-92v58z"/>
            <glyph glyph-name="fuwujiedian" unicode="&#xe71c;" d="M361 592h120v-445h-120v445zM529 482h121v-335h-121v335zM191 375h120v-228h-120v228zM698 650v-503h120l1 503h-121zM964 719v20h-911v-10v0v-680h910v2h1v668zM112 107v573h795v-573h-795v0z"/>
            <glyph
                glyph-name="caozuo"
                unicode="&#xe71e;"
                d="M65 73q0 57 41 98l205 205l-1 4q-19 54 -19 111q0 90 44.5 166.5t121 120.5t165.5 44q69 0 132 -27l13 -6q1 0 2 -1q3 -1 5 -3q4 -4 4 -9.5t-4 -9.5l-2 -2l-189 -189l123 -123l193 193q1 0 2 1q7 7 14 0q2 -2 3 -4l1 -2l7 -18q28 -63 28 -131q0 -90 -44.5 -166.5
t-121 -120.5t-166.5 -44q-58 0 -111 19l-4 1l-206 -205q-40 -40 -97.5 -40t-98 40.5t-40.5 97.5v0v0zM142 134q-26 -25 -26 -61t25.5 -61.5t61.5 -25.5t62 25l230 230l16 -7q53 -23 111 -23q116 0 198 82t82 198q0 32 -7 63l-2 12l-178 -178q-10 -7 -18 1l-3 3l-176 176
q-2 3 -2 7q0 5 3 8l178 178l-11 3q-31 7 -64 7q-115 0 -197.5 -82t-82.5 -198q0 -58 23 -111l7 -16l-230 -230v0zM142 134z"/>
            <glyph
                glyph-name="bianpai"
                unicode="&#xe71f;"
                d="M695 -38q-14 -9 -27 1q-22 16 -130 75q-56 30 -148 96q-73 52 -109 71q-41 22 -44 64q-2 24 10 46t34 36q26 17 56 16l-128 206q-11 17 -16 38t2.5 47t32.5 43q31 19 63 10q36 -11 58 -49l61 -90q10 15 27 26q43 27 80 13q7 -3 14 -8q12 18 35 31q33 18 65 6
q14 -5 27 -15q12 19 36 28q39 13 71.5 -8t49.5 -52l55 -86q4 -5 9 -13.5t17 -33t22 -50.5t19 -65t11 -77q6 -100 8 -119q1 -4 1 -8q-2 -13 -13 -19l-249 -160v0zM309 308q-24 -15 -22 -37q1 -13 16 -22q38 -20 114 -74q89 -63 143 -92q80 -44 120 -69l225 144q-2 25 -7 109
q-2 34 -10 69t-16.5 58t-20 46t-15 28.5t-7.5 11.5l-56 88l-1 2q-4 6 -9 13t-20.5 17t-30.5 4q-4 -1 -7 -3q-13 -9 -4 -34l5 -13q4 -10 0 -19t-13 -12.5t-18 0t-14 11.5q-3 6 -6 15q-18 36 -38 43q-12 4 -26.5 -3.5t-18 -16t3.5 -27.5l14 -20q6 -9 5 -18.5t-8.5 -16
t-17 -5.5t-16.5 8q-10 11 -19 27l-9 13q-2 3 -4 7v0q-7 18 -20.5 23.5t-35.5 -8.5v0q-25 -16 -12 -46l29 -43q6 -8 4.5 -18t-8.5 -16t-17 -5t-17 8q-20 21 -34 50l-102 150l-1 2q-12 21 -28 25q-11 3 -23 -4v0q-13 -9 -14.5 -24t2 -22.5t6.5 -13.5l167 -266q11 -18 -4 -32
t-31 -1q-40 30 -73 9v0v0v0v0zM309 308zM151 815q-56 -36 -70.5 -101.5t21.5 -121.5q22 -34 57 -53.5t74 -20.5l-30 47q-41 13 -64 49q-27 42 -16.5 90t52 75t90 16.5t74.5 -52.5q23 -36 18 -78l31 -48q15 35 12 75t-25 75q-37 56 -102 70.5t-122 -22.5v0zM151 815z"/>
            <glyph
                glyph-name="autozonglan"
                unicode="&#xe720;"
                d="M959 410l-396 384q-21 20 -50.5 20t-50.5 -20l-396 -384q-9 -10 -9 -23t9.5 -22t22.5 -9t23 9l19 18v-313q0 -28 20.5 -48.5t50.5 -20.5h618q29 0 50 20.5t21 48.5v317l22 -22q10 -9 23 -9t22.5 9t9.5 22t-9 23v0zM408 291q0 6 6 6h193q7 0 7 -6v-226h-206v226zM607 360
h-193q-29 0 -50 -20t-21 -49v-226h-141q-7 0 -7 5v376l313 303q2 2 4.5 2t4.5 -2l309 -300v-379q0 -5 -6 -5h-142v226q0 29 -20.5 49t-50.5 20v0zM607 360z"/>
            <glyph
                glyph-name="autopeizhi"
                unicode="&#xe721;"
                d="M511 534q-56 0 -95 -39.5t-39 -95.5t39 -96t95 -40t95 40t39 96t-39 95.5t-95 39.5v0zM511 318q-33 0 -57 23.5t-24 57.5t24 57.5t57 23.5t57 -23.5t24 -57.5t-24 -57.5t-57 -23.5v0zM891 303l-63 37q6 32 6 59t-6 59l63 37q19 11 24.5 32.5t-5.5 41.5l-53 94
q-12 19 -33.5 25t-40.5 -6l-63 -37q-48 41 -101 60v46q0 23 -16 38.5t-38 15.5h-108q-22 0 -37.5 -15.5t-15.5 -38.5v-46q-54 -19 -101 -60l-64 37q-19 12 -40.5 6t-32.5 -25l-54 -94q-11 -20 -5.5 -41.5t24.5 -32.5l63 -37q-5 -32 -5 -59t5 -59l-63 -37q-19 -11 -24.5 -33
t5.5 -41l54 -94q11 -19 32.5 -25t40.5 5l64 37q47 -40 101 -59v-46q0 -23 15.5 -39t37.5 -16h108q22 0 38 16t16 39v46q53 19 101 59l63 -37q19 -11 40.5 -5t33.5 25l53 94q11 19 5.5 41t-24.5 33v0zM850 233l-27 -47q-5 -10 -16 -13t-20 3l-75 43q-60 -68 -147 -86v-59
q0 -12 -8 -19.5t-19 -7.5h-54q-11 0 -19 7.5t-8 19.5v59q-87 18 -147 86l-75 -43q-9 -6 -20 -3t-16 13l-27 47q-6 9 -3 20t13 17l75 43q-15 43 -15 85.5t15 85.5l-75 44q-10 6 -13 16.5t3 20.5l27 47q5 10 16 13t20 -3l75 -44q60 68 147 86v60q0 11 8 19t19 8h54q11 0 19 -8
t8 -19v-60q87 -18 147 -86l75 44q9 6 20 3t16 -13l27 -47q6 -10 3 -20.5t-13 -16.5l-75 -44q15 -43 15 -85.5t-15 -85.5l75 -43q10 -6 13 -17t-3 -20v0zM850 233z"/>
            <glyph
                glyph-name="ziyuan"
                unicode="&#xe722;"
                d="M968 588v0q1 2 1 3l0.5 0.5t0.5 1.5v0.5v1.5l1 2v1v0v4v1q-1 2 -1 3v0.5v0.5q-1 2 -2 3v1l-1 1l-0.5 1t-1 1.5l-1.5 1.5l-1 2q-2 1 -3 1q0 1 -0.5 1h-0.5v0h-1l-280 158v0l-1 0.5l-1 0.5q-1 1 -3 1h-1q-1 1 -3 1h-1h-4h-0.5h-0.5q-1 -1 -3 -1q-1 0 -1 -1q-2 0 -3 -1h-1
l-146 -82l-146 82q-1 0 -2 0.5l-1 0.5q-1 1 -2 1h-3q0 1 -0.5 1h-0.5h-4h-1q-1 0 -3 -1h-0.5h-0.5l-3 -1q-1 0 -2 -1v0l-281 -158l-1 -1q-1 0 -2 -1l-2 -2l-0.5 -0.5l-1.5 -1.5l-1 -2l-0.5 -0.5l-0.5 -0.5v-1l-1 -2q0 -1 -0.5 -1.5l-0.5 -0.5v-2l-0.5 -1l-0.5 -1v-2v-3
l0.5 -2t1 -2.5t0.5 -1.5q1 -2 1 -3v0h1q1 -3 3 -4q0 -1 1 -2q1 0 3 -2l0.5 -0.5l0.5 -0.5h1l126 -67l-110 -53h-0.5h-0.5q-2 -1 -2.5 -1.5l-1.5 -1.5l-1.5 -1.5l-1 -1t-0.5 -1.5l-1 -1v0v0l-0.5 -1t-1 -1.5t-0.5 -1t-0.5 -1t-0.5 -1v-1t-0.5 -1.5l-0.5 -1v-1v-1v-2.5v-2.5
q0 -1 1 -2v-2l1 -2v-0.5v-0.5l0.5 -0.5l0.5 -0.5q2 -3 3 -4v-0.5v-0.5q2 -2 5 -3l141 -94q-1 -3 -1 -6v-139v-1v-1q1 -2 1 -3v-2q1 -1 1 -2l1 -2l1 -2l2 -2l0.5 -1l0.5 -1q2 -1 3 -2v-0.5t1 -0.5v0l271 -185q0 -1 1 -1h0.5t1.5 -1q2 -1 3 -1l1 -0.5l1 -0.5h5v-1v1h5q1 0 1 1
h2t2 1t1.5 1t1 0.5l0.5 0.5v0l271 185q1 1 1.5 1h0.5l1 1t1 1.5t0.5 1t1 0.5t0.5 1l1 1l1 2q1 1 1 2t1 2v1v1q1 1 1 4v0.5v0.5v139q0 3 -1 6l142 94q2 1 4 3v0.5t1 0.5l2 4l1 1v0.5v0.5q1 1 1 2l0.5 1l0.5 1v2v3v2v2v1t-0.5 1t-0.5 1v1.5t-0.5 1l-0.5 0.5q-1 2 -1 3h-1v0
l-0.5 0.5l-0.5 0.5q0 1 -1 2l-2 2t-2 1.5t-2 1.5h-0.5t-0.5 1l-109 52l125 67h1l1 1q2 1 3 3q1 0 2 1q1 2 3 4v0v0zM667 291l-112 72l226 122l103 -50zM352 291l-218 144l103 50l226 -122zM351 730l110 -61l-224 -131l-117 62zM509 392l-223 120l223 130l223 -130zM557 669
l110 61l231 -130l-117 -62zM338 243l1 -1l4 -2q2 0 2 -1h6v0v0v0h1h6q0 1 1 1q2 1 5 2v0v0l122 80v-283l-224 153v102l76 -51v0zM757 192l-224 -153v283l121 -80h1q1 -1 4 -2l2 -1h6v0v0v0v0q3 0 6 1h2l4 2l0.5 0.5l0.5 0.5l77 51v-102v0v0zM757 192z"/>
            <glyph
                glyph-name="liebiaolan"
                unicode="&#xe723;"
                d="M90 339v-123h123v124h-123v-1zM90 101v-123h123v124h-123v-1zM336 101v-125h614v126h-614v-1zM336 340v-126h614v126h-614zM334 812h616v-125h-616v125zM88 812h123v-123h-123v123zM334 580h615v-125h-615v125zM88 580h123v-123h-123v123z"/>
            <glyph glyph-name="wcunchu" unicode="&#xe725;" d="M425 327l-31 -131l136 33l434 458l-100 92l-437 -452h-2zM425 327zM875 484v-367v-52h-714v52v529v14v29v14h540l1 81h-621v-772v-26l872 -1v27v580zM875 484z"/>
            <glyph
                glyph-name="guanxi"
                unicode="&#xe727;"
                d="M949 188.5q0 -64.5 -46 -109.5l-79 -78q-45 -45 -109 -45q-66 0 -110 46l-111 111q-45 45 -45 110q0 66 48 112l-48 47q-46 -47 -112 -47q-64 0 -110 45l-112 112q-45 46 -45 110.5t46 108.5l79 79q45 45 109 45q66 0 110 -46l111 -112q45 -44 45 -109q0 -66 -48 -112
l48 -48q46 48 112 48q64 0 110 -46l112 -112q45 -45 45 -109.5zM467 568q0 22 -15 37l-111 111q-15 15 -37 15q-21 0 -36 -14l-79 -79q-15 -15 -15 -36t15 -36l112 -112q14 -15 36 -15q23 0 39 17l-10 10q-9 8 -12 11t-8 10t-7 14t-2 15q0 22 15 37t37 15q8 0 14.5 -2t14 -7
t10.5 -8t11 -12l10 -10q18 17 18 39v0zM845 189q0 21 -15 36l-112 112q-15 15 -36 15q-23 0 -39 -17l10 -10q9 -8 12 -11.5t8 -10.5t7 -13.5t2 -14.5q0 -22 -15 -37t-37 -15q-8 0 -14.5 2t-13.5 7t-10.5 8t-11.5 12l-10 10q-18 -17 -18 -39t15 -37l111 -111q15 -15 37 -15
q21 0 36 14l79 79q15 15 15 36z"/>
            <glyph
                glyph-name="xiaofeiquan"
                unicode="&#xe729;"
                d="M378 686.5q0 -54.5 38.5 -93t93 -38.5t93 38.5t38.5 93t-38.5 93t-93 38.5t-93 -38.5t-38.5 -93zM683 191.5q0 -54.5 38.5 -93t93 -38.5t93 38.5t38.5 93t-38.5 93t-93 38.5t-93 -38.5t-38.5 -93zM73 189v0q0 -54 38.5 -92.5t93 -38.5t93 38.5t38.5 92.5v0v0
q0 54 -38.5 92.5t-93 38.5t-93 -38.5t-38.5 -92.5v0zM235 360q2 42 17 80.5t34.5 63.5t39.5 43.5t32.5 26.5t13.5 8q-17 21 -25.5 49.5t-9.5 46.5v18q-65 -34 -111.5 -83t-67 -94.5t-30 -87.5t-10 -66t0.5 -25q57 31 116 20zM785 360q31 5 57 0.5t43 -12.5l17 -9
q-2 75 -25 139.5t-54 102.5t-64 65.5t-53 38.5t-23 11q2 -30 -7 -58.5t-18 -41.5l-10 -14q109 -63 133 -187zM659 113q-44 -28 -91 -38t-82.5 -5t-65 14.5t-44.5 19.5l-16 9q-6 -12 -13.5 -23t-15.5 -19t-16.5 -15t-15 -11.5t-12 -7.5t-9 -4.5l-3.5 -1.5q51 -36 104 -55.5
t98 -22t87 3t74 18.5t56.5 25t37.5 21l13 10q-28 12 -49 33t-29 34t-8 15z"/>
            <glyph glyph-name="pc" unicode="&#xe72a;" d="M961 168v619h-895v-619h431v-137h-186v-35h406v35h-186v137h430zM101 753h826v-550h-826v550zM101 753z"/>
            <glyph
                glyph-name="ie"
                unicode="&#xe72b;"
                d="M742 318h220q3 21 3 47q0 110 -56 206q59 155 -13 227q-34 35 -120.5 29t-190.5 -53q-15 2 -31 2q-143 0 -254 -88t-145 -223q92 118 209 174q-14 -13 -60 -60q-81 -80 -139 -175.5t-83.5 -176.5t-25 -146t28.5 -94q46 -42 118 -38t165 49q87 -44 186 -44q133 0 239.5 77
t149.5 200h-223q-23 -43 -65.5 -68.5t-93 -25.5t-93 25.5t-66.5 68.5q-21 41 -21 86v1h361zM381 426q4 68 54 115.5t119 47.5t119 -47.5t53 -115.5h-345zM894 752q46 -47 4 -162q-72 108 -192 156q136 58 188 6v0zM143 2q-29 31 -22.5 89t46.5 136q24 -68 69 -123t106 -92
q-144 -65 -199 -10v0v0zM143 2z"/>
            <glyph
                glyph-name="ios"
                unicode="&#xe72c;"
                d="M781 378q1 -38 14.5 -71.5t30 -53t38.5 -35.5t31 -20.5t17 -6.5v0q-28 -77 -68 -133q-19 -27 -31.5 -42.5t-32 -34t-40.5 -27.5t-45 -10q-32 0 -77 18.5t-83 18.5q-40 0 -86 -18.5t-74 -19.5q-23 -1 -44.5 8.5t-42 29.5t-34 36.5t-33.5 43.5q-32 44 -56.5 102t-37.5 121
t-5.5 128.5t37.5 116.5q33 53 86.5 84t115.5 32q35 1 90 -19.5t71 -20.5q14 0 45.5 12t69.5 23t71 7q16 0 34 -3.5t44.5 -12t53 -28.5t46.5 -48v0q-8 -4 -16 -9.5t-25.5 -22.5t-30.5 -35t-23 -48t-10 -62v0zM514 658q-5 38 10.5 76.5t41.5 67.5t66.5 49t76.5 21
q5 -39 -9.5 -78t-41 -70t-66 -50t-78.5 -16v0zM514 658z"/>
            <glyph
                glyph-name="safari"
                unicode="&#xe72d;"
                d="M510 774q-31 0 -60 -5q-1 1 -1 2q18 14 14 32q-3 11 -13.5 18t-26.5 7q-6 0 -13 -2q-19 -4 -30 -16t-8 -26q3 -18 25 -24v-2q-129 -37 -211.5 -145t-82.5 -246q0 -111 54.5 -204.5t148 -148t204 -54.5t204 54.5t148 148t54.5 204t-54.5 204.5t-148 148.5t-203.5 54.5v0z
M385 786q-2 8 6.5 16t21.5 11q5 1 10 1q24 0 27 -14q2 -10 -10 -18q-10 6 -21.5 3.5t-17.5 -12.5q-14 4 -16 13v0zM728 149q-57 -56 -132 -78l-36 58l-9 -68q-21 -3 -41 -3q-128 0 -219 91q-56 56 -78 131l59 36l-68 9q-3 21 -3 42q0 128 90 218q57 56 132 78l36 -58l9 68
q21 2 42 2q127 0 218 -90q56 -56 78 -132l-59 -36l68 -9q3 -20 3 -41q0 -128 -90 -218v0zM720 578l-166 -127q-19 10 -41 11l-43 91l-3 -101q-17 -8 -29 -23l-54 19l39 -41q-8 -17 -8 -36l-91 -44l100 -2q1 -1 1 -2l-126 -167l167 127q19 -10 40 -11l43 -91l3 101
q17 8 29 23l54 -19l-39 41q8 17 8 36l91 43l-100 3q-1 1 -1 2zM510 451v0v0zM493 446q8 2 17 2h10v-1v1q11 -2 21 -6l-60 -46l-46 -61q-3 7 -5 15q-7 33 11.5 61t51.5 35v0zM552 297v0v0q-12 -7 -26 -10q-8 -2 -17 -2q-5 0 -10 1v0q-11 2 -21 6l60 46l46 61q3 -8 5 -15
q6 -26 -4.5 -49.5t-32.5 -37.5v0zM552 297z"/>
            <glyph
                glyph-name="huohu"
                unicode="&#xe72e;"
                d="M946 509l-12 -65q-6 48 -14 89.5t-12 58.5l-5 17q-5 19 -15 37t-18 26l-8 8q8 -9 12 -27t4 -31v-14q-13 29 -30 51t-28 30l-11 8q-28 28 -60 50t-60.5 34.5t-56.5 21.5t-50 12.5t-39.5 5.5t-26.5 1h-9q-34 1 -66.5 -3.5t-58.5 -12.5t-50.5 -18.5t-43.5 -22t-35.5 -23.5
t-28 -23t-19.5 -19t-12.5 -13t-3.5 -5q-11 9 -16 22.5t-5 22.5l1 9q-23 -24 -34 -60.5t-10 -60.5v-25l-25 -51q-6 -8 -12 -30t-9 -40l-2 -18v-10l-3 -133l5 34q8 -52 25.5 -98.5t33.5 -73.5t34.5 -49.5t25.5 -28.5t11 -9v0q65 -57 136.5 -86.5t126.5 -32t101 4.5t71 16.5
t25 10.5q61 22 109.5 61.5t74.5 78t43.5 78t22.5 60t5 24.5q15 45 20.5 97.5t3.5 83.5l-2 30v0v0zM795 545q11 -17 10.5 -54t-6.5 -74l-6 -38l-30 30q2 -50 -1.5 -87.5t-10.5 -56t-14.5 -29.5t-12.5 -13l-6 -2l13 72l-4 -13q-27 -46 -60 -72.5t-65 -32.5t-64 -2t-58.5 16
t-47.5 25t-32.5 22.5t-11.5 10.5q42 -11 71.5 -8.5t44.5 11.5l15 9q18 16 34 24.5t23 9.5l7 1q12 -2 15 4.5t0 13.5l-2 7q-15 17 -35.5 23.5t-34.5 3.5l-14 -2q-23 -11 -43.5 -16t-34 -4t-24 3.5t-15.5 6.5l-4 3q-79 47 -40 87q9 10 12 10q4 1 17 -2.5t24 -8.5l11 -5
q2 9 0.5 23t-4.5 27l-3 13l73 51l14 15l2 22l-3 10l-66 1q-18 -3 -30.5 6t-16.5 20l-4 10q3 23 18 44t29 31l14 10q-30 -2 -53 -8t-34.5 -13.5t-19 -14.5t-9.5 -12l-2 -4q-37 4 -59 3.5t-30 -4.5l-8 -3l-34 36l16 -14l16 9q30 32 70.5 55.5t74 35t68.5 18.5t49 8t19 1
q44 -3 80 -9.5t56.5 -13t35 -13t19.5 -11.5l5 -4q-96 13 -94 0q31 -3 62 -14t47 -19l15 -9q-22 1 -44 -2t-32 -6l-11 -4q49 -12 87.5 -35t58 -47.5t32 -47.5t16.5 -38l3 -15q-11 24 -21.5 34t-16.5 7l-5 -2v0v0zM795 545z"/>
            <glyph
                glyph-name="shouji"
                unicode="&#xe72f;"
                d="M714 -8h-400q-18 0 -30.5 12.5t-12.5 30.5v744q0 18 12.5 30.5t30.5 12.5h400q18 0 30.5 -12.5t12.5 -30.5v-744q0 -18 -12.5 -30.5t-30.5 -12.5v0zM514 35q12 0 20.5 8.5t8.5 20.5t-8.5 20t-20.5 8t-20.5 -8t-8.5 -20t8.5 -20.5t20.5 -8.5v0zM714 736h-400v-601h400v601
zM714 736z"/>
            <glyph
                glyph-name="google"
                unicode="&#xe730;"
                d="M320 408q0 -80 55.5 -136.5t133.5 -56.5t133.5 56.5t55.5 136t-55.5 136t-133.5 56.5t-133.5 -56.5t-55.5 -135.5v0zM299 407q0 89 61.5 151.5t148.5 62.5h6h353q-55 96 -150.5 153t-208.5 57q-106 0 -197.5 -51t-148.5 -138l136 -241v6v0zM509 193q-55 0 -102 27t-75 73
h-1l-183 323q-54 -97 -54 -208t51.5 -205.5t140.5 -152.5t196 -65l136 240q-50 -32 -109 -32v0zM882 595h-272q49 -28 79 -78t30 -110q0 -50 -22 -94h1l-4 -7l-6 -10l-176 -312q112 1 207 57.5t150 154t55 212.5q0 99 -42 187v0zM882 595z"/>
            <glyph
                glyph-name="opera"
                unicode="&#xe731;"
                d="M510 833q-179 0 -293 -119t-114 -311q0 -86 30 -165.5t82.5 -139.5t129.5 -96.5t165 -36.5q89 0 167 36.5t130.5 96.5t83 139.5t30.5 165.5q0 96 -31.5 176.5t-86 136t-130 86.5t-163.5 31v0zM661 410q0 -37 -0.5 -64.5t-4 -66t-9.5 -66.5t-17 -58t-27 -49t-39.5 -31
t-53.5 -12v0q-29 0 -52.5 12t-38.5 31t-26 49t-16.5 57.5t-8.5 66.5t-4 66t-1 65q0 47 2 83.5t7 76.5t15.5 68.5t26 52.5t40 36.5t56.5 12.5t57 -12.5t41 -36.5t27 -53t16.5 -68.5t7.5 -76.5t2 -83v0zM661 410z"/>
            <glyph glyph-name="shanjian" unicode="&#xe732;" d="M904 480h-791v-131h791v131zM904 480z"/>
            <glyph
                glyph-name="xfuwujiedian"
                unicode="&#xe734;"
                d="M780 732h-532v-153h532v153zM294 621v69h440v-69h-440zM759 842h-490q-34 0 -58 -21.5t-24 -52.5v-776q0 -31 24 -52.5t58 -21.5h490q34 0 58 21.5t24 52.5v776q0 31 -24 52.5t-58 21.5v0zM234 768q0 13 10 22.5t25 9.5h490q15 0 25 -9.5t10 -22.5v-776q0 -13 -10 -22.5
t-25 -9.5h-490q-15 0 -25 9.5t-10 22.5v776zM625 215q0 41 -32.5 70.5t-78.5 29.5t-78 -29.5t-32 -71t32 -71t78 -29.5t78.5 29.5t32.5 71.5v0zM514 156q-27 0 -45.5 17t-18.5 41.5t18.5 41.5t45.5 17t45.5 -17t18.5 -41.5t-18.5 -41.5t-45.5 -17v0zM248 414h532v152h-532
v-152zM734 524v-68h-440v68h440z"/>
            <glyph
                glyph-name="xgaojingtai"
                unicode="&#xe735;"
                d="M771 736l82 -352h-245q-10 0 -16.5 -6.5t-6.5 -16.5v-150h-145v150q0 10 -6.5 16.5t-16.5 6.5h-245l82 352h517zM609 797h-382q-17 0 -24 -15l-104 -417v-9v-362q0 -11 6.5 -17.5t16.5 -6.5h780q11 0 17.5 6.5t6.5 17.5v362v9v0l-104 417q-8 15 -24 15h-189zM512 21h-351
v304h218v-150q0 -12 7.5 -19t18.5 -7h215q11 0 18.5 7t7.5 19v147h220v-301h-354v0z"/>
            <glyph glyph-name="baobiao" unicode="&#xe736;" d="M624 814h-502v-850h782v584q-267 266 -280 266v0zM792 602h-112v106zM848 17h-670v744h446v-213h224v-531zM736 177h-503v53h503v-53zM401 495h-168v53h168v-53v0zM568 336h-335v53h335v-53z"/>
            <glyph
                glyph-name="shangsheng"
                unicode="&#xe737;"
                d="M445 617v-646q0 -14 10.5 -24.5t24.5 -10.5h69q15 0 25 10.5t10 24.5v657l207 -203q5 -6 12.5 -5.5t12.5 5.5l49 49q6 5 6 12.5t-5 12.5l-278 273q-2 4 -4 6l-54 53q-6 7 -15 6q-8 1 -14 -5l-38 -39l-299 -287q-5 -5 -5 -13.5t6 -13.5l53 -54q6 -5 14 -5.5t14 5.5
l199 192v0z"/>
            <glyph
                glyph-name="xiajiang"
                unicode="&#xe738;"
                d="M584 157v645q0 15 -10 25t-25 10h-69q-14 0 -24.5 -10t-10.5 -25v-656l-207 203q-5 5 -12.5 5t-12.5 -5l-49 -49q-5 -5 -5 -12.5t5 -12.5l278 -274q1 -3 4 -5l53 -54q7 -6 15 -6t14 6l39 39l298 286q6 6 6 14t-6 14l-53 53q-6 6 -14 6t-14 -5l-200 -192v0z"/>
            <glyph
                glyph-name="ccaozuo"
                unicode="&#xe739;"
                d="M70 67q0 57 40 97l204 204l-1 4q-19 54 -19 111q0 89 44 165t120 120t165 44q69 0 131 -27l13 -6q1 -1 2 -1q3 -1 5 -3q4 -4 4 -9.5t-4 -9.5l-2 -2l-188 -188l123 -122l191 191q1 0 2 1q7 7 15 0q1 -1 2 -3l1 -3l7 -17q27 -63 27 -131q0 -89 -44 -165t-120 -120t-165 -44
q-57 0 -111 19l-4 2l-204 -204q-40 -40 -97 -40t-97 40t-40 97v0v0v0zM146 128q-25 -25 -25.5 -61t25 -61t61.5 -25t61 25l229 228l16 -7q52 -23 110 -23q115 0 196.5 81.5t82.5 196.5q0 32 -8 63l-2 12l-177 -177q-9 -7 -17 1l-4 3l-174 175q-2 3 -2 7t2 8l178 177l-12 3
q-31 7 -63 7q-115 0 -196.5 -81.5t-81.5 -196.5q0 -58 23 -111l6 -16l-228 -228v0zM146 128z"/>
            <glyph
                glyph-name="anonymous-iconfont"
                unicode="&#xe73a;"
                d="M512 825q-90 0 -172.5 -35t-141.5 -94.5t-94.5 -142t-35.5 -172.5t35.5 -172t94.5 -141.5t141.5 -95t172.5 -35.5t172.5 35.5t141.5 95t94.5 141.5t35.5 172t-35.5 172.5t-94.5 142t-141.5 94.5t-172.5 35v0zM694 258q12 -12 12 -29.5t-12 -29.5t-29.5 -12t-29.5 12
l-123 123l-123 -123q-12 -12 -29.5 -12t-29.5 12t-12 29.5t12 29.5l123 123l-123 123q-12 12 -12 29.5t12 29.5t29.5 12t29.5 -12l123 -123l123 123q12 12 29.5 12t29.5 -12t12 -29.5t-12 -29.5l-123 -123l123 -123v0z"/>
            <glyph
                glyph-name="jinyong"
                unicode="&#xe73b;"
                d="M512 -63q-90 0 -171.5 35t-140.5 94t-94 140.5t-35 171t35 171t94 140.5t140.5 93.5t171 34.5t171 -34.5t140.5 -93.5t94 -140.5t35 -171t-35 -171t-94 -140.5t-140.5 -94t-170.5 -35v0zM154 377q0 -97 48 -179.5t130 -130t180 -47.5q124 0 221 77l-502 502
q-77 -98 -77 -222v0zM512 735q-125 0 -222 -78l502 -502q77 98 77 222q0 97 -48 179.5t-130 130.5t-179 48v0z"/>
            <glyph glyph-name="daochu" unicode="&#xe73c;" d="M639 25h-471v689h471v109h-578v-910h578v112v0zM427 435v-137h276v-165l257 236l-257 237v-171h-276z"/>
            <glyph
                glyph-name="lajixiang"
                unicode="&#xe73d;"
                d="M482 619h63v-545h-63v545zM332 619h64v-545h-64v545zM631 619h63v-545h-63v545zM894 743h-170v40q0 23 -18.5 39t-45.5 16h-294q-26 0 -44.5 -16t-18.5 -39v-40h-176v-64h67v-669q0 -26 18.5 -44t44.5 -18h512q26 0 45 18t19 44v669h61v64v0v0zM366 775h294v-32h-294v32z
M770 12h-1l-512 -2v669h512l1 -667v0z"/>
            <glyph
                glyph-name="quanping"
                unicode="&#xe743;"
                d="M664 487l244 243l-1 -138q0 -9 6 -15t15 -6h14q9 0 15 5t7 14v205l1 11q0 9 -5 14q-6 7 -15 6h-10h-1l-204 1q-8 0 -14.5 -6.5t-6.5 -14.5v-15q2 -10 8.5 -16t15.5 -5l134 -1l-243 -242q-8 -9 -8 -20.5t8 -20t20 -8.5t20 9v0zM356 257l-244 -242l1 137q0 9 -6 15t-15 6
h-15q-9 0 -15 -5t-6 -14l-1 -205v-3v-5.5v-2.5q-1 -10 5 -15q6 -6 14 -6l11 1v0l205 -1q8 0 14.5 6.5t6.5 14.5v15q-1 10 -8 15.5t-16 5.5h-134l243 243q8 8 8 20t-8 20.5t-19.5 8.5t-20.5 -9v0zM964 -51v205q0 9 -6.5 14t-14.5 5h-15q-9 0 -15 -6t-5 -15v-138l-244 243
q-8 9 -20 9t-20 -8.5t-8 -20.5t8 -20l243 -243h-134q-9 0 -16 -5.5t-8 -15.5v-15q0 -8 6.5 -14.5t14.5 -6.5l204 1h1l10 -1q9 0 15 6q5 5 4 15v11v0v0zM153 769l134 1q9 -1 16 5t8 16v15q0 8 -6.5 14.5t-14.5 6.5l-205 -1v0h-11q-9 1 -14 -6q-6 -5 -5 -14v-11v-206
q1 -8 7 -13t15 -5h15q9 -1 15 5.5t6 15.5l-1 137l244 -243q8 -8 20 -8t20.5 8.5t8.5 20t-9 20.5l-243 242v0zM153 769z"/>
            <glyph
                glyph-name="suoxiao"
                unicode="&#xe744;"
                d="M952 18l-211 211q81 103 81 235q0 104 -51.5 192.5t-139.5 139.5t-192.5 51t-193 -51t-139.5 -139.5t-51 -192.5t51 -192.5t139.5 -140t192.5 -51.5q132 0 236 81l210 -210q14 -14 34 -14t34 14t14 33.5t-14 33.5v0v0zM151 464q0 119 84 203.5t203 84.5t203.5 -84.5
t84.5 -203.5t-84.5 -203.5t-203.5 -84.5t-203 84.5t-84 203.5v0zM397 505h-100q-17 0 -29 -12t-12 -29t12 -29t29 -12h282q17 0 29.5 12t12 29t-12.5 29t-29 12v0h-182z"/>
            <glyph
                glyph-name="cunchu"
                unicode="&#xe745;"
                d="M936 638l-160 160q-8 8 -18 8h-608q-24 0 -41.5 -17.5t-17.5 -42.5v-734q0 -24 17.5 -41.5t41.5 -17.5h734q25 0 42 17.5t17 41.5v608q1 10 -7 18v0zM617 756h54v-183h-54v183zM363 756h205v-183h-205v183zM755 2h-460v260q0 36 25 61t61 25h288q36 0 61 -25t25 -61v-260
zM894 12q0 -10 -10 -10h-79v260q0 56 -40 96t-96 40h-288q-56 0 -96 -40t-40 -96v-260h-95q-10 0 -10 10v734q0 10 10 10h163v-185q0 -19 14 -33t33 -14h313q20 0 33.5 14t13.5 33v185h28l146 -146v-598v0z"/>
            <glyph
                glyph-name="cuowuhttp"
                unicode="&#xe746;"
                d="M412 40q0 32 26 58q32 32 64 32q38 0 64.5 -26.5t26.5 -64t-26.5 -64t-64 -26.5t-64 26.5t-26.5 64.5v0v0zM502 247v0q-36 0 -60.5 25t-24.5 61v421q0 36 24.5 60.5t60.5 24.5v0q36 0 61 -24.5t25 -60.5v-416q0 -40 -24.5 -65.5t-61.5 -25.5v0z"/>
            <glyph
                glyph-name="cuowusql"
                unicode="&#xe747;"
                d="M913 -53h-808q-17 0 -29.5 12t-12.5 30v807q0 18 12.5 30t29.5 12h808q17 0 29.5 -12t12.5 -30v-807q0 -18 -12.5 -30t-29.5 -12v0zM871 755h-724v-725h724v725zM619 630q-39 38 -105 38q-68 0 -110 -43q-43 -43 -43 -99q0 -34 35 -34q33 0 35 36q1 29 23 50t57.5 21
t55.5 -19q21 -18 21 -52q0 -13 -2 -23q-2 -11 -8 -21q-7 -10 -17 -21q-11 -11 -28 -27q-35 -35 -53 -70t-18 -69q0 -13 2 -21q1 -7 4 -11v0q4 -4 11 -6t21 -2q33 0 33 40q0 13 2 24q1 12 8 23q6 12 18 26q12 13 33 33q32 33 48 61q15 28 15 60q0 69 -38 106v0v0zM535 203
q-7 7 -16 11t-19.5 4t-19.5 -4t-16 -11t-11 -16t-4 -19.5t4 -19.5t11 -16t16 -11t19.5 -4t19.5 4t16 11t11 16t4 19.5t-4 19.5t-11 16v0v0z"/>
            <glyph
                glyph-name="jiaoyiliangzongpaixing"
                unicode="&#xe748;"
                d="M246 53h655q25 0 25 -25v-34q0 -23 -22 -23h-395h-395q-21 0 -22 22q0 15 0.5 37.5t22.5 22.5h131v0v0zM153 267v40.5v62v40.5q0 35 35 35h51q33 0 33 -33v-232q0 -33 -33 -33h-54q-32 0 -32 32v88v0v0zM449 314v275q0 35 36 35h51q33 0 33 -32v-205.5v-205.5
q0 -15 -9 -23.5t-24 -8.5h-50q-37 0 -37 36v129v0zM866 372l0.5 -93.5t-0.5 -94.5q0 -19 -8.5 -27.5t-27.5 -8.5h-50q-15 0 -23.5 8.5t-9.5 23.5v295.5v296.5q1 31 32 31q22 1 55 0q32 0 32 -33v-398v0z"/>
            <glyph
                glyph-name="jiaoyipaixing"
                unicode="&#xe749;"
                d="M318 334q11 -11 26.5 -11t26.5 11t11 26.5t-11 26.5l-158 158h685q16 0 27 11t11 26.5t-11 26.5t-27 11h-685l158 158q11 11 11 27t-11 27t-26.5 11t-26.5 -11l-222 -223q-11 -11 -11 -26.5t11 -26.5zM933 209q0 1 -1 3v0q-3 5 -7 9l-222 222q-12 11 -27.5 11t-26.5 -11
t-11 -26.5t11 -26.5l158 -158h-685q-15 0 -26 -11t-11 -26.5t11 -26.5t26 -11h685l-158 -158q-11 -11 -11 -27t11 -27t26.5 -11t27.5 11l222 223q18 17 8 41z"/>
            <glyph
                glyph-name="jiaoyixingneng"
                unicode="&#xe74a;"
                d="M936 773h-842q-21 0 -35.5 -14.5t-14.5 -35.5v-643q0 -21 14.5 -35.5t35.5 -14.5h842q21 0 35.5 14.5t14.5 35.5v643q0 21 -14.5 35.5t-35.5 14.5v0zM926 714v-338h-158l-57 82l-72 -82h-130l-21 -74l-92 332l-76 -256l-60 102l-50 -104h-106v338h822zM104 90v246h130
l29 60l69 -118l63 213l94 -338l50 183h118l50 58l40 -58h179v-246h-822z"/>
            <glyph glyph-name="manjiaoyi" unicode="&#xe74b;" d="M278 633v-691h-98v691h98zM228 858l-135 -225h269l-134 225v0zM362 589h180v-105h-180v105zM362 408h282v-104h-282v104zM362 230h426v-104h-426v104zM362 50h565v-104h-565v104z"/>
            <glyph
                glyph-name="mima"
                unicode="&#xe74c;"
                d="M935 407h-165v180v0q-6 104 -82 175t-180 71t-180 -71t-82 -175h-1v-180h-164q-7 0 -11.5 -5t-4.5 -12v-426q0 -7 4.5 -12t11.5 -5h854q6 0 11 5t5 12v426q0 7 -5 12t-11 5v0zM311 587h1q6 76 62.5 128.5t133.5 52.5t133.5 -52.5t62.5 -128.5v0v-180h-393v180zM885 26
q0 -6 -4 -9.5t-10 -3.5h-726q-6 0 -10.5 3.5t-4.5 9.5v302q0 5 4.5 9t10.5 4h726q6 0 10 -4t4 -9v-302zM508 243q-27 0 -46.5 -19.5t-19.5 -46.5t19.5 -46.5t46.5 -19.5t46.5 19.5t19.5 46.5t-19.5 46.5t-46.5 19.5v0z"/>
            <glyph glyph-name="zhiyin" unicode="&#xe74d;" d="M59 -63l619 281l281 619l-619 -281l-281 -619v0zM621 275l-450 -225l225 450z"/>
            <glyph
                glyph-name="houtui"
                unicode="&#xe74e;"
                d="M789 778q-9 -4 -223 -129.5t-302 -176.5v299q0 26 -18.5 44.5t-44 18.5t-44 -18.5t-18.5 -44.5v-372h-1q1 0 1 -1v-372q0 -26 18.5 -44t44 -18t44 18t18.5 44v300q8 -5 203.5 -119.5t278.5 -162.5q16 -9 29.5 -15.5t30.5 -12t30 -3t24.5 11t17.5 30.5t6 55v623
q0 27 -9.5 42t-25 16.5t-30 -2t-30.5 -11.5z"/>
            <glyph glyph-name="kaishi" unicode="&#xe74f;" d="M923 402q-424 250 -659 384q-17 11 -31.5 17.5t-33 13t-32.5 3.5t-26.5 -12.5t-19.5 -33t-7 -59.5v-675q1 -30 11.5 -46t27 -18t32.5 2t33 13z"/>
            <glyph
                glyph-name="qianjin"
                unicode="&#xe750;"
                d="M223 20l1 1h1v1h1l1 1h1l1 1v0h1l1 1h1v1h1l1 1h1l1 1v0l1 1h1l1 1h1v0l1 1h1l1 1h1l1 1v0l1 1h1l1 1h1v1h1l1 1h1l1 1h1v1h1l1 1h1l1 1h1v0l1 1h1l1 1h1l1 1h1v1h1l1 1h1l1 1h1l1 1v0l1 1h1l1 1h1l1 1h1v1h1l1 1h1l1 1h1l1 1h1v1h1l1 1l1 1h1l1 1h1l1 1v0l1 1h1l1 1h1
l1 1h1l1 1h1l1 1v0l1 1h1l1 1h1l1 1h1l1 1h1l1 1v0l1 1l1 1h1l1 1h1l1 1h1l1 1h1l1 1h1v1h1l1 1h1l1 1l1 1h1l1 1h1l1 1h1l1 1h1v1h1l1 1h1l1 1l1 1h1l1 1h1l1 1h1l1 1h1l1 1h1l1 1v1h1l1 1h1l1 1h1l1 1h1l1 1l1 1h1l1 1h1l1 1h1l1 1h1l1 1h1l1 1l1 1v0l1 1h1l1 1h1l1 1h1
l1 1l1 1h1l1 1h1l1 1h1l1 1l1 1h1l1 1h1l1 1h1l1 1h1l1 1l1 1h1l1 1h1l1 1v0l1 1l1 1h1l1 1h1l1 1h1l1 1l1 1h1l1 1h1l1 1h1l1 1h1l1 1l1 1h1l1 1h1l1 1h1l1 1l1 1h1l1 1h1l1 1h1l1 1l1 1h1l1 1h1l1 1h1l1 1l1 1h1l1 1h1l1 1l1 1h1l1 1h1l1 1h1l1 1l1 1h1l1 1h1l1 1h1l1 1
l1 1h1l1 1h1l1 1h1l1 1l1 1h1l1 1h1l1 1l1 1h1l1 1h1l1 1h1l1 1l1 1h1l1 1h1l1 1h1l1 1l1 1h1l1 1h1l1 1l1 1h1l1 1h1l1 1h1l1 1l1 1h1l1 1h1l1 1h1l1 1l1 1h1l1 1h1l1 1l1 1h1l1 1h1l1 1h1l1 1l1 1h1l1 1h1l1 1h1l1 1l1 1h1l1 1l1 1h1l1 1l1 1h1l2 1h1l1 1l1 1h1l1 1l1 1h1
l1 1l1 1h1l2 1h1l1 1l1 1h1l1 1l1 1h1l1 1l1 1h1l2 1h1l1 1l1 1h1l1 1l1 1h1l1 1l1 1h1l2 1h1l1 1l1 1h1l1 1l1 1h1l1 1h1l2 1l1 1h1l1 1l1 1h1l1 1l1 1h1l1 1h2l1 1l1 1h1l1 1l1 1h1l1 1l1 1h1l1 1h2l1 1l1 1h1l1 1l1 1h1l1 1l1 1h1l2 1h1l1 1l1 1h1l1 1l1 1h1l1 1l1 1h1
l2 1h1l1 1l1 1h1l1 1l1 1h1l1 1l1 1h1l2 1h1l1 1l1 1h1l1 1l1 1h1l1 1h1l1 1l1 1h2l1 1l1 1h1l1 1h1l1 1l1 1h1l1 1l1 1h1l2 1h1l1 1l1 1h1l1 1l1 1h1l1 1h1l1 1l1 1h1l2 1l1 1h1l1 1h1l1 1l1 1h1l1 1l1 1h1l1 1h1l1 1l1 1h2l1 1l1 1h1l1 1h1l1 1l1 1h1l1 1h1l1 1l1 1h1l1 1
h1l1 1l2 1h1l1 1l1 1h1l1 1h1l1 1l1 1h1l1 1h1l1 1l1 1h1l1 1h1l1 1l1 1h1l1 1h1l1 1l1 1h1l1 1h1l1 1l2 1h1l1 1h1l1 1h1l1 1l1 1h1l1 1h1l1 1l1 1h1l1 1h1l-1 -299q0 -26 18.5 -44.5t44 -18.5t44 18.5t18.5 43.5v373h1l-1 1l1 372q0 25 -18 43.5t-44 18.5t-44 -18t-18 -44
l-1 -300q-238 139 -482 283q-16 9 -29 15.5t-30.5 12t-30 3t-24.5 -11t-18 -30.5t-6 -55q-1 -106 -1.5 -359.5t-0.5 -262.5q1 -28 10.5 -43t25 -16.5t30 2t30.5 11.5v0z"/>
            <glyph
                glyph-name="shijianwajue"
                unicode="&#xe751;"
                d="M774 105h-53h-1q-66 0 -113 47t-47 113v52h189q37 0 56.5 10.5t20.5 28.5t-4.5 34.5t-17.5 35.5q-157 205 -225 317q-29 40 -53 50.5t-44 -3t-46 -51.5q-42 -69 -134.5 -196t-108.5 -151q-8 -15 -9 -31t10.5 -29.5t35.5 -14.5h169v-52q0 -87 43 -161t117 -117t161 -42
h107v160h-53v0z"/>
            <glyph
                glyph-name="jingyin"
                unicode="&#xe752;"
                d="M470 757v0l-218 -163h-136q-28 0 -48 -20t-20 -48v-273q0 -27 20 -47t48 -20h136l218 -163q22 -17 38 -9t16 36v679q0 28 -16 36.5t-38 -8.5zM887 358l69 69q17 17 17 41.5t-17 41.5v0q-17 17 -41 17t-42 -17l-69 -69l-69 69q-17 17 -41.5 17t-41.5 -17t-17 -41.5
t17 -41.5l69 -69l-69 -70q-17 -17 -17 -41t17 -41v0q17 -18 41.5 -18t41.5 18l69 69l69 -69q18 -18 42 -18t41 18v0q17 17 17 41t-17 41z"/>
            <glyph
                glyph-name="shengyin"
                unicode="&#xe753;"
                d="M689 560q-14 14 -34 14t-34 -14t-14 -34t14 -34q42 -42 42 -102t-42 -102q-14 -14 -14 -34t14 -34t34 -14t34 14q71 71 71 170.5t-71 169.5v0zM464 737v0l-205 -154h-129q-26 0 -45 -19t-19 -45v-258q0 -26 19 -44.5t45 -18.5h129l205 -154q21 -16 36 -8.5t15 34.5v641
q0 26 -15 33.5t-36 -7.5zM825 696q-14 14 -34 14t-34 -14t-14 -34t14 -34q49 -48 74 -111t25 -127t-25 -126.5t-74 -111.5q-14 -14 -14 -34t14 -34t34 -14t34 14v0q83 83 112.5 194.5t0 223t-112.5 194.5z"/>
            </font>
</defs>
</svg>
